<svg width="40" height="40" viewBox="0 0 40 40" fill="none" xmlns="http://www.w3.org/2000/svg">
<g clip-path="url(#clip0_471_8414)">
<path d="M27.4986 0C25.3662 0.147499 22.8737 1.51249 21.4212 3.28998C20.0962 4.90247 19.0062 7.29746 19.4312 9.62494C21.7612 9.69744 24.1687 8.29995 25.5637 6.49246C26.8686 4.80997 27.8561 2.42999 27.4986 0Z" fill="#4B95FC"/>
<path d="M35.9259 13.4203C33.8784 10.8528 31.0009 9.36279 28.2834 9.36279C24.6959 9.36279 23.1784 11.0803 20.6859 11.0803C18.116 11.0803 16.1635 9.36779 13.061 9.36779C10.0135 9.36779 6.76853 11.2303 4.71104 14.4153C1.81856 18.9002 2.31356 27.3327 7.00103 34.5151C8.67852 37.0851 10.9185 39.9751 13.8485 40.0001C16.456 40.0251 17.191 38.3276 20.7234 38.3101C24.2559 38.2901 24.9259 40.0226 27.5284 39.9951C30.4609 39.9726 32.8234 36.7701 34.5009 34.2002C35.7034 32.3577 36.1509 31.4302 37.0834 29.3502C30.3009 26.7677 29.2134 17.1227 35.9259 13.4203Z" fill="#4B95FC"/>
</g>
<defs>
<clipPath id="clip0_471_8414">
<rect width="40" height="40" fill="white"/>
</clipPath>
</defs>
</svg>