<svg width="77" height="66" viewBox="0 0 77 66" fill="none" xmlns="http://www.w3.org/2000/svg">
<path d="M24.9648 48.4H62.0476C65.1587 48.4 67.8585 46.3442 68.6108 43.41L76.9302 11.543C77.1021 10.8849 76.9525 10.1861 76.5252 9.64993C76.0977 9.11372 75.4403 8.8 74.744 8.8H15.357L14.0233 4.63335C13.1363 1.86193 10.5401 0 7.56328 0H2.25586C1.01002 0 0 0.985013 0 2.2C0 3.41499 1.00987 4.4 2.25586 4.4H7.56328C8.55556 4.4 9.4209 5.02069 9.71657 5.9444C10.3885 8.04364 21.3769 42.3733 22.0972 44.6236C19.7954 45.6785 18.1972 47.9601 18.1972 50.6C18.1972 54.2392 21.2332 57.1985 24.9648 57.1985H27.6087C27.3583 57.8871 27.2207 58.6288 27.2207 59.4C27.2207 63.0392 30.2566 66 33.9882 66C37.7199 66 40.7558 63.0392 40.7558 59.4C40.7558 58.6288 40.6182 57.8886 40.3678 57.1985H50.1674C49.917 57.8886 49.7794 58.6288 49.7794 59.4C49.7794 63.0392 52.8153 66 56.5469 66C60.2786 66 63.3145 63.0392 63.3145 59.4C63.3145 58.6288 63.1769 57.8886 62.9265 57.2H65.5702C66.816 57.2 67.826 56.215 67.826 55C67.826 53.785 66.816 52.8 65.5702 52.8H24.9648C23.7209 52.8 22.7089 51.8131 22.7089 50.6C22.7089 49.3869 23.7209 48.4 24.9648 48.4ZM36.2441 59.4C36.2441 60.6131 35.2321 61.6 33.9882 61.6C32.7443 61.6 31.7324 60.6131 31.7324 59.4C31.7324 58.1869 32.7443 57.2 33.9882 57.2C35.2321 57.2 36.2441 58.1869 36.2441 59.4ZM58.8026 59.4C58.8026 60.6131 57.7906 61.6 56.5468 61.6C55.3029 61.6 54.2909 60.6131 54.2909 59.4C54.2909 58.1869 55.3029 57.2 56.5468 57.2C57.7906 57.2 58.8026 58.1869 58.8026 59.4ZM51.7355 30.8L50.0436 44H40.4914L38.7995 30.8H51.7355ZM38.2355 26.4L36.5437 13.2H53.9913L52.2994 26.4H38.2355ZM35.9445 44H26.6238L22.3987 30.8H34.2526L35.9445 44ZM64.2361 42.3336C63.9846 43.3148 63.0845 44 62.0476 44H54.5905L56.2824 30.8H67.247L64.2361 42.3336ZM68.3957 26.4H56.8462L58.5381 13.2H71.8418L68.3957 26.4ZM31.9967 13.2L33.6886 26.4H20.9903L16.7652 13.2H31.9967Z" fill="#40AA54"/>
</svg>
