<svg width="38" height="22" viewBox="0 0 38 22" fill="none" xmlns="http://www.w3.org/2000/svg">
<path d="M37.7344 0.96582V21.033H0.265625V0.96582H37.7344Z" fill="#58935E"/>
<path d="M32.8836 3.42188H5.03828C5.03828 4.82812 3.92188 5.87344 2.59375 5.9125V16.0875C3.92188 16.1266 5.03828 17.25 5.03828 18.6562H32.8836C32.8836 17.25 33.9219 16.1266 35.25 16.0875V5.9125C33.9219 5.87344 32.8836 4.82812 32.8836 3.42188Z" fill="#7FD695"/>
<path d="M31.2662 9.40527C31.5817 9.40527 31.8902 9.49884 32.1525 9.67413C32.4149 9.84943 32.6194 10.0986 32.7401 10.3901C32.8608 10.6816 32.8924 11.0024 32.8309 11.3118C32.7693 11.6213 32.6174 11.9055 32.3943 12.1286C32.1712 12.3517 31.8869 12.5037 31.5774 12.5652C31.268 12.6268 30.9472 12.5952 30.6557 12.4745C30.3642 12.3537 30.1151 12.1492 29.9398 11.8869C29.7645 11.6245 29.6709 11.3161 29.6709 11.0006C29.6708 10.7911 29.7121 10.5836 29.7922 10.39C29.8724 10.1964 29.9899 10.0206 30.138 9.87241C30.2862 9.72427 30.4621 9.60676 30.6557 9.5266C30.8492 9.44645 31.0567 9.40522 31.2662 9.40527Z" fill="#61B257"/>
<path d="M19.0009 3.50195C20.4839 3.50195 21.9337 3.94173 23.1668 4.76567C24.3999 5.58961 25.361 6.76071 25.9285 8.13087C26.4961 9.50103 26.6446 11.0087 26.3552 12.4633C26.0659 13.9178 25.3518 15.2539 24.3031 16.3026C23.2544 17.3513 21.9183 18.0654 20.4638 18.3548C19.0092 18.6441 17.5015 18.4956 16.1314 17.9281C14.7612 17.3605 13.5901 16.3994 12.7662 15.1663C11.9422 13.9332 11.5024 12.4834 11.5024 11.0004C11.5024 10.0157 11.6964 9.0406 12.0732 8.13084C12.45 7.22108 13.0023 6.39445 13.6986 5.69815C14.3949 5.00185 15.2216 4.44952 16.1313 4.0727C17.0411 3.69587 18.0162 3.50193 19.0009 3.50195ZM24.447 11.0004C24.447 9.92326 24.1276 8.87031 23.5292 7.97471C22.9307 7.0791 22.0802 6.38106 21.085 5.96886C20.0899 5.55666 18.9948 5.4488 17.9384 5.65894C16.882 5.86908 15.9116 6.38777 15.1499 7.14942C14.3883 7.91107 13.8696 8.88148 13.6594 9.93792C13.4493 10.9944 13.5571 12.0894 13.9693 13.0845C14.3815 14.0797 15.0796 14.9302 15.9752 15.5287C16.8708 16.1271 17.9237 16.4465 19.0009 16.4465C20.4453 16.4465 21.8305 15.8727 22.8519 14.8514C23.8732 13.83 24.447 12.4448 24.447 11.0004Z" fill="#61B257"/>
<path d="M6.73516 9.40527C7.05071 9.40512 7.35923 9.49855 7.62168 9.67375C7.88413 9.84895 8.08873 10.0981 8.20959 10.3895C8.33046 10.681 8.36216 11.0018 8.3007 11.3113C8.23923 11.6208 8.08735 11.9052 7.86427 12.1284C7.6412 12.3516 7.35694 12.5036 7.04746 12.5652C6.73798 12.6268 6.41717 12.5953 6.12562 12.4745C5.83407 12.3538 5.58487 12.1493 5.40954 11.887C5.23421 11.6246 5.14063 11.3161 5.14063 11.0006C5.14056 10.5776 5.30851 10.1719 5.60754 9.87274C5.90656 9.57357 6.31217 9.40542 6.73516 9.40527Z" fill="#61B257"/>
<path d="M18.9996 10.4766C18.8177 10.4766 18.64 10.4227 18.4889 10.3217C18.3377 10.2207 18.2199 10.0772 18.1503 9.90919C18.0807 9.74123 18.0625 9.5564 18.098 9.37809C18.1335 9.19978 18.221 9.03599 18.3496 8.90744C18.4781 8.77888 18.6419 8.69133 18.8202 8.65587C18.9985 8.6204 19.1834 8.6386 19.3513 8.70817C19.5193 8.77775 19.6628 8.89557 19.7639 9.04673C19.8649 9.1979 19.9188 9.37562 19.9188 9.55742C19.9188 9.68174 19.9682 9.80097 20.0561 9.88888C20.144 9.97679 20.2632 10.0262 20.3875 10.0262C20.5118 10.0262 20.6311 9.97679 20.719 9.88888C20.8069 9.80097 20.8563 9.68174 20.8563 9.55742C20.8558 9.14669 20.7193 8.74768 20.4683 8.42263C20.2172 8.09758 19.8656 7.86478 19.4683 7.76055V7.33398C19.4683 7.20966 19.4189 7.09044 19.331 7.00253C19.2431 6.91462 19.1239 6.86523 18.9996 6.86523C18.8752 6.86523 18.756 6.91462 18.6681 7.00253C18.5802 7.09044 18.5308 7.20966 18.5308 7.33398V7.76055C18.0939 7.87448 17.7134 8.14375 17.4607 8.51794C17.2079 8.89213 17.1002 9.3456 17.1577 9.79348C17.2151 10.2414 17.4339 10.6529 17.7729 10.9512C18.1119 11.2495 18.548 11.414 18.9996 11.4139C19.1814 11.4139 19.3591 11.4678 19.5102 11.5688C19.6614 11.6698 19.7792 11.8134 19.8488 11.9814C19.9184 12.1493 19.9366 12.3341 19.9011 12.5125C19.8656 12.6908 19.7781 12.8546 19.6495 12.9831C19.521 13.1117 19.3572 13.1992 19.1789 13.2347C19.0006 13.2701 18.8157 13.2519 18.6478 13.1824C18.4798 13.1128 18.3363 12.995 18.2353 12.8438C18.1342 12.6927 18.0803 12.5149 18.0803 12.3331C18.0803 12.2088 18.031 12.0896 17.943 12.0017C17.8551 11.9138 17.7359 11.8644 17.6116 11.8644C17.4873 11.8644 17.368 11.9138 17.2801 12.0017C17.1922 12.0896 17.1428 12.2088 17.1428 12.3331C17.1433 12.7439 17.2797 13.1429 17.5308 13.4679C17.7819 13.793 18.1335 14.0258 18.5308 14.13V14.6664C18.5308 14.7907 18.5802 14.91 18.6681 14.9979C18.756 15.0858 18.8752 15.1352 18.9996 15.1352C19.1239 15.1352 19.2431 15.0858 19.331 14.9979C19.4189 14.91 19.4683 14.7907 19.4683 14.6664V14.1298C19.9052 14.0158 20.2857 13.7466 20.5384 13.3724C20.7912 12.9982 20.8989 12.5447 20.8414 12.0968C20.784 11.649 20.5652 11.2374 20.2262 10.9391C19.8872 10.6408 19.4511 10.4763 18.9996 10.4764V10.4766Z" fill="#EADF53"/>
</svg>
