<svg width="14" height="38" viewBox="0 0 14 38" fill="none" xmlns="http://www.w3.org/2000/svg">
<path d="M12.6947 22.1019H12.22V14.2513C12.2204 14.1781 12.2066 14.1056 12.1796 14.038C12.1526 13.9704 12.1129 13.9091 12.0627 13.8577C12.0125 13.8063 11.953 13.7659 11.8875 13.7387C11.8221 13.7116 11.752 13.6983 11.6816 13.6997H11.064V3.42294C11.2 2.63835 11.0504 1.96257 10.6128 1.50843C9.54515 0.399894 7.19147 1.15645 5.15779 3.26803C3.33328 5.16248 2.564 7.31113 3.176 8.53355V13.6997H2.55842C2.48796 13.6983 2.41794 13.7116 2.35249 13.7387C2.28704 13.7659 2.22748 13.8063 2.17731 13.8577C2.12714 13.9091 2.08738 13.9704 2.06036 14.038C2.03335 14.1056 2.01962 14.1781 2.02 14.2513V22.1019H1.54529C1.47448 22.1004 1.40408 22.1135 1.33818 22.1404C1.27229 22.1674 1.21223 22.2077 1.16148 22.2591C1.11074 22.3104 1.07033 22.3716 1.0426 22.4393C1.01488 22.507 1.0004 22.5797 1 22.6533V34.3085C1.00075 35.0208 1.27315 35.7039 1.75763 36.2083C2.24211 36.7127 2.89923 36.9973 3.58529 37H10.6547C11.3408 36.9973 11.9979 36.7127 12.4824 36.2083C12.9668 35.7039 13.2392 35.0208 13.24 34.3085V22.6533C13.2396 22.5797 13.2251 22.507 13.1974 22.4393C13.1697 22.3716 13.1293 22.3104 13.0785 22.2591C13.0278 22.2077 12.9677 22.1674 12.9018 22.1404C12.8359 22.1135 12.7655 22.1004 12.6947 22.1019ZM5.93224 4.06687C7.23886 2.71016 8.53032 2.1273 9.28464 2.1273C9.53101 2.1273 9.71984 2.1895 9.83347 2.30727C10.2941 2.78557 9.87223 4.55795 8.13884 6.35786C6.40546 8.15778 4.69859 8.59561 4.23789 8.11739C3.77719 7.63917 4.19886 5.86672 5.93224 4.06687ZM4.264 9.36982C4.43134 9.40455 4.60145 9.42289 4.7721 9.42461C5.94768 9.42461 7.51059 8.61263 8.9133 7.15664C9.3147 6.73956 9.636 6.31013 9.976 5.88098V13.6997H4.264V9.36982ZM3.108 14.8294H11.132V22.1019H3.108V14.8294ZM12.152 34.3085C12.1516 34.7213 11.9939 35.1172 11.7134 35.4098C11.4329 35.7024 11.0523 35.868 10.6547 35.8703H3.58529C3.18769 35.868 2.80711 35.7024 2.5266 35.4098C2.24609 35.1172 2.08842 34.7213 2.088 34.3085V23.2316H12.152V34.3085Z" fill="#16162E" stroke="#16162E" stroke-width="0.8"/>
<path d="M3.99224 33.6551C4.13652 33.6551 4.27489 33.5956 4.37691 33.4897C4.47893 33.3837 4.53624 33.2401 4.53624 33.0902V26.1645C4.53624 26.0147 4.47893 25.871 4.37691 25.7651C4.27489 25.6591 4.13652 25.5996 3.99224 25.5996C3.84796 25.5996 3.7096 25.6591 3.60758 25.7651C3.50556 25.871 3.44824 26.0147 3.44824 26.1645V33.0902C3.44824 33.2401 3.50556 33.3837 3.60758 33.4897C3.7096 33.5956 3.84796 33.6551 3.99224 33.6551Z" fill="#16162E" stroke="#16162E" stroke-width="0.8"/>
</svg>
