<svg width="29" height="38" viewBox="0 0 29 38" fill="none" xmlns="http://www.w3.org/2000/svg">
<path d="M3.78001 16.8491C3.17836 16.8491 2.6891 17.3386 2.6891 17.94V32.0552C1.59792 33.226 1 34.7436 1 36.3528V36.4545C1 36.756 1.24423 37 1.54545 37H24.103C24.4042 37 24.6484 36.756 24.6484 36.4545V36.3528C24.6484 34.7154 24.0292 33.1728 22.9005 31.9929V17.94C22.9005 17.4122 22.5236 16.9711 22.0247 16.8708L27.1475 8.92667C27.1654 8.89874 27.1706 8.86538 27.1832 8.83492C27.1977 8.79956 27.2177 8.76587 27.2244 8.72918C27.2248 8.72725 27.2262 8.72569 27.2266 8.72372L28.0405 4.00692C28.0778 3.79066 27.9819 3.5728 27.7968 3.45455C27.6119 3.33683 27.3741 3.34109 27.193 3.4652L23.3343 6.13068C23.3117 6.14646 23.298 6.1713 23.2781 6.19007C23.2487 6.21764 23.2156 6.24011 23.1921 6.27504C23.19 6.27823 23.1899 6.28203 23.1879 6.28526C23.1859 6.28835 23.1823 6.29002 23.1804 6.29315L16.6583 16.8491H16.371V5.74343H17.2233V10.3766C17.2233 10.6781 17.4675 10.9221 17.7687 10.9221C18.07 10.9221 18.3142 10.6781 18.3142 10.3766V5.19798C18.3142 4.89648 18.07 4.65252 17.7687 4.65252H16.371V2.43075C16.371 1.64187 15.7291 1 14.9403 1H13.4064C12.6175 1 11.9759 1.64187 11.9759 2.43075V16.8491H11.1301L7.98651 2.90909C7.95455 2.76793 7.86799 2.64489 7.74574 2.56765C7.62322 2.49094 7.47621 2.46538 7.33398 2.4968L1.97745 3.7081C1.68368 3.77468 1.49938 4.06658 1.5657 4.36062L4.12115 15.6689C4.12125 15.6694 4.12108 15.6698 4.12118 15.6703C4.12132 15.6708 4.12165 15.6712 4.12178 15.6717L4.38785 16.8491H3.78001ZM5.06058 17.94C5.06388 17.94 5.06684 17.9416 5.07014 17.9416C5.07503 17.9416 5.08012 17.9401 5.08505 17.94L12.499 17.9397C12.5068 17.9401 12.5134 17.9442 12.5214 17.9442C12.5294 17.9442 12.5359 17.9401 12.5438 17.9397L15.8027 17.9396C15.8107 17.94 15.8174 17.9442 15.8256 17.9442C15.8337 17.9442 15.8404 17.94 15.8484 17.9396L16.9589 17.9396C16.9598 17.9396 16.9608 17.94 16.9617 17.94C16.9628 17.94 16.9638 17.9396 16.9648 17.9396L21.8096 17.9395V31.7298H3.78001V17.94L5.06058 17.94ZM23.5392 35.9091H2.10929C2.2061 34.7535 2.68344 33.6778 3.47369 32.8207H22.1747C22.965 33.6778 23.4423 34.7535 23.5392 35.9091ZM26.2949 7.70795L24.6122 6.57426L26.7448 5.10103L26.2949 7.70795ZM23.8103 7.34907L25.941 8.78455L20.7407 16.8491H17.9403L23.8103 7.34907ZM13.4064 2.09091H14.9403C15.1278 2.09091 15.2801 2.24325 15.2801 2.43075V4.65252H13.0669V2.43075C13.0669 2.24325 13.2192 2.09091 13.4064 2.09091ZM13.0669 5.74343H15.2801V16.8491H13.0669V5.74343ZM5.30578 15.9618L6.00257 15.8045C6.29634 15.7379 6.48091 15.446 6.4146 15.152C6.34828 14.8585 6.05797 14.6737 5.76234 14.7402L5.06527 14.8976L4.63198 12.9801L5.32928 12.8226C5.62305 12.756 5.80762 12.4641 5.7413 12.1701C5.67472 11.8766 5.38281 11.6928 5.08905 11.7583L4.39151 11.9159L3.95822 9.9985L4.65598 9.84126C4.95002 9.77521 5.13459 9.48331 5.06827 9.18928C5.00169 8.89524 4.71005 8.71147 4.41628 8.77699L3.71778 8.93439L3.28452 7.01711L3.98295 6.85938C4.27672 6.79279 4.46129 6.50089 4.39498 6.20685C4.32839 5.91335 4.03489 5.72905 3.74272 5.7951L3.04406 5.95287L2.75009 4.65199L7.04235 3.68146L10.0118 16.8491H5.50626L5.30578 15.9618Z" fill="#16162E" stroke="#16162E" stroke-width="0.5"/>
</svg>
