<svg width="30" height="36" viewBox="0 0 30 36" fill="none" xmlns="http://www.w3.org/2000/svg">
<path d="M26.4206 15.2819L27.6859 8.877C28.1187 6.68625 27.5538 4.44015 26.1359 2.71482C24.7182 0.989498 22.6243 0 20.3912 0H9.24346C7.0103 0 4.91639 0.989498 3.4986 2.71482C2.08074 4.44015 1.51581 6.68625 1.94867 8.877L3.21687 15.2962C1.17437 17.8543 0.044642 20.9899 0.00132068 24.3013C-0.0264584 26.4206 0.384109 28.4724 1.22163 30.3997C2.02962 32.259 3.19155 33.9084 4.67538 35.3019C4.67538 35.302 4.67545 35.302 4.67545 35.302C5.1548 35.7521 5.78028 36 6.43678 36H23.1979C23.8542 36 24.4786 35.7531 24.956 35.3049C26.4172 33.9334 27.5674 32.3125 28.3747 30.487C29.2107 28.5967 29.6346 26.5822 29.6346 24.4994C29.6346 21.1131 28.5031 17.8943 26.4206 15.2819V15.2819ZM5.12864 4.05427C6.14415 2.81856 7.64394 2.1098 9.24346 2.1098H20.3912C21.9907 2.1098 23.4905 2.81856 24.506 4.05427C25.5215 5.29005 25.9262 6.89885 25.6161 8.46805L24.6407 13.4056C23.9843 12.8228 23.2838 12.3039 22.5471 11.852L23.3059 8.01163C23.5426 6.81305 23.0194 5.9545 22.6866 5.54956C22.3537 5.14433 21.6127 4.4647 20.3911 4.4647H9.24346C8.02181 4.4647 7.28092 5.14433 6.94806 5.54942C6.61513 5.9545 6.09197 6.81305 6.32869 8.01163L7.0897 11.8632C6.35457 12.3162 5.65447 12.8365 4.99691 13.4209L4.01839 8.46805C3.70846 6.89892 4.11305 5.29012 5.12864 4.05427V4.05427ZM9.04077 10.8535L8.39855 7.60268C8.34616 7.33769 8.40657 7.09759 8.57809 6.88893C8.74955 6.68027 8.9734 6.5745 9.24346 6.5745H20.3912C20.6612 6.5745 20.8851 6.68027 21.0566 6.88907C21.2281 7.09766 21.2884 7.33776 21.2361 7.60268L20.5951 10.8471C18.858 10.1119 16.9788 9.71234 15.0398 9.68379C12.9481 9.65193 10.9143 10.0557 9.04077 10.8535ZM26.4451 29.6336C25.7528 31.1991 24.766 32.5896 23.512 33.7666C23.4271 33.8462 23.3156 33.8901 23.1978 33.8901H6.43678C6.31899 33.8901 6.20639 33.8453 6.11975 33.764C3.52554 31.3275 2.06436 27.8885 2.11098 24.3288C2.15529 20.9456 3.52392 17.775 5.96482 15.4011C8.4084 13.0247 11.6203 11.7453 15.0087 11.7934C18.3625 11.8428 21.508 13.1865 23.8654 15.5768C26.2252 17.9695 27.5248 21.1383 27.5248 24.4994C27.5248 26.2863 27.1615 28.0138 26.4451 29.6336V29.6336Z" fill="#16162E"/>
<path d="M20.2134 20.6064H9.42209C8.8395 20.6064 8.36719 21.0788 8.36719 21.6613C8.36719 22.2439 8.8395 22.7162 9.42209 22.7162H20.2134C20.796 22.7162 21.2683 22.2439 21.2683 21.6613C21.2683 21.0788 20.796 20.6064 20.2134 20.6064Z" fill="#16162E"/>
<path d="M18.1032 24.5361H11.5315C10.9489 24.5361 10.4766 25.0084 10.4766 25.591C10.4766 26.1736 10.9489 26.6459 11.5315 26.6459H18.1032C18.6857 26.6459 19.1581 26.1736 19.1581 25.591C19.1581 25.0084 18.6857 24.5361 18.1032 24.5361Z" fill="#16162E"/>
</svg>
