<svg width="47" height="38" viewBox="0 0 47 38" fill="none" xmlns="http://www.w3.org/2000/svg">
<path d="M46.3015 18.7944C44.8481 15.0719 42.418 11.8465 39.2737 9.46676C36.1108 7.07303 32.3792 5.66052 28.4715 5.37611L20.412 1.26013C20.3961 1.25196 20.3799 1.24433 20.3635 1.23722C19.9992 1.07974 19.6268 1 19.2566 1C17.7617 1 16.6343 2.27157 16.6343 3.95778C16.6343 5.04568 17.1268 5.97791 17.6972 7.05723C17.769 7.19318 17.8417 7.33093 17.915 7.47165C14.5472 9.16644 11.6296 11.8208 9.57058 15.0634L4.06305 11.6527C4.0283 11.6312 3.99198 11.6123 3.9545 11.596C3.66873 11.4725 3.3754 11.4099 3.0827 11.4099C1.89531 11.4098 1 12.4068 1 13.729C1 15.271 2.70885 17.9119 3.54065 19.1058C2.70885 20.2997 1 22.9406 1 24.4826C1 25.8047 1.89531 26.8018 3.0827 26.8018C3.3754 26.8018 3.66883 26.7391 3.95471 26.6155C3.99208 26.5993 4.02841 26.5803 4.06316 26.5589L9.57016 23.1486C11.6235 26.3949 14.4466 28.9782 17.8078 30.6866C17.7523 30.7963 17.6973 30.9043 17.6429 31.011C17.1018 32.0716 16.6345 32.9877 16.6345 34.0423C16.6345 35.7283 17.7617 36.9999 19.2567 37C19.2568 37 19.257 37 19.2571 37C19.627 37 19.9994 36.9201 20.3637 36.7627C20.3809 36.7552 20.3979 36.7472 20.4145 36.7386L27.9303 32.8701C36.0527 32.4957 43.2502 27.2326 46.3016 19.4169C46.3795 19.2169 46.3795 18.9944 46.3015 18.7944ZM34.8346 29.452C32.5128 27.0106 31.1337 23.1017 31.1337 18.924C31.1337 16.9983 31.4168 15.1447 31.975 13.4147C32.1187 12.9692 31.8777 12.4904 31.4366 12.3452C30.9958 12.2004 30.5216 12.4434 30.3778 12.8889C29.7648 14.789 29.454 16.8194 29.454 18.924C29.454 23.262 30.8322 27.3673 33.1778 30.1303C31.4315 30.7495 29.5834 31.1124 27.6817 31.1823C27.5596 31.1868 27.4398 31.2182 27.331 31.2743L19.6795 35.2126C19.5334 35.2729 19.3913 35.3034 19.2567 35.3034C19.2567 35.3034 19.2567 35.3034 19.2566 35.3034C18.7105 35.3034 18.3141 34.7731 18.3141 34.0424C18.3141 33.3992 18.6587 32.7235 19.1359 31.7882C19.3078 31.4513 19.5025 31.0694 19.6969 30.6546C19.7932 30.449 19.8038 30.2128 19.7261 29.9992C19.6484 29.7856 19.4891 29.6126 19.2838 29.5187C15.6386 27.8533 12.6263 25.0989 10.5726 21.5531C10.4585 21.3563 10.2709 21.2141 10.0519 21.1586C9.98444 21.1416 9.91599 21.1332 9.84764 21.1332C9.69405 21.1332 9.54192 21.1758 9.40859 21.2583L3.2469 25.074C3.18852 25.0947 3.13341 25.1051 3.08259 25.1051C2.84533 25.1051 2.67966 24.8491 2.67966 24.4826C2.67966 23.5418 4.18305 21.0673 5.25065 19.6107C5.47049 19.3108 5.47049 18.9008 5.25065 18.601C4.18316 17.1443 2.67977 14.6698 2.67977 13.729C2.67977 13.3624 2.84543 13.1065 3.0828 13.1065C3.13362 13.1065 3.18873 13.1169 3.24711 13.1375L9.40859 16.9531C9.60103 17.0724 9.83294 17.1082 10.0519 17.0527C10.2709 16.9973 10.4585 16.8551 10.5726 16.6582C12.6196 13.1242 15.753 10.2774 19.3956 8.64195C19.6034 8.54874 19.7648 8.37451 19.8431 8.15892C19.9213 7.94344 19.9099 7.70505 19.8111 7.49826C19.5937 7.04291 19.3735 6.62595 19.1791 6.25819C18.6769 5.30782 18.3141 4.62108 18.3141 3.95756C18.3141 3.22682 18.7104 2.69649 19.2566 2.69649C19.3915 2.69649 19.5342 2.72714 19.6807 2.78758L27.8656 6.96762C27.9671 7.01948 28.0778 7.04991 28.1914 7.05723C29.819 7.16168 31.4146 7.48002 32.9448 7.99837C32.5392 8.50505 32.1611 9.05531 31.8162 9.64449C31.5802 10.0478 31.7125 10.568 32.1118 10.8065C32.2458 10.8867 32.3931 10.9248 32.5383 10.9248C32.8255 10.9248 33.1054 10.7759 33.2622 10.508C33.6635 9.82253 34.1129 9.1991 34.6009 8.64948C35.8891 9.22837 37.1185 9.95562 38.2663 10.8243C41.0735 12.9489 43.2632 15.807 44.6144 19.1054C42.6981 23.7841 39.1585 27.4354 34.8346 29.452Z" fill="#16162E" stroke="#16162E" stroke-width="0.4"/>
<path d="M37.1213 14.0195C35.7427 14.0195 34.6211 15.1525 34.6211 16.5451C34.6211 17.9376 35.7428 19.0706 37.1213 19.0706C38.4999 19.0706 39.6215 17.9376 39.6215 16.5451C39.6215 15.1525 38.4999 14.0195 37.1213 14.0195ZM37.1213 17.3739C36.6688 17.3739 36.3009 17.0021 36.3009 16.5451C36.3009 16.088 36.6689 15.7162 37.1213 15.7162C37.5737 15.7162 37.9418 16.088 37.9418 16.5451C37.9418 17.0021 37.5737 17.3739 37.1213 17.3739Z" fill="#16162E" stroke="#16162E" stroke-width="0.4"/>
</svg>
