<svg width="30" height="36" viewBox="0 0 30 36" fill="none" xmlns="http://www.w3.org/2000/svg">
<path d="M29.9796 31.0928L27.8004 10.0238C27.7389 9.44325 27.1858 9 26.5225 9H22.6814V6.75C22.6814 4.941 21.885 3.24225 20.4381 1.971C18.9913 0.69975 17.0579 0 14.999 0C10.7635 0 7.31671 3.0285 7.31671 6.75V9H3.47555C2.8123 9 2.25918 9.44325 2.20028 10.0238L0.0210564 31.0928C-0.109543 32.3483 0.371883 33.6037 1.33986 34.5353C2.30783 35.4668 3.68553 36 5.12213 36H24.8785C26.3151 36 27.6928 35.4668 28.6608 34.5353C29.6288 33.6037 30.1076 32.3483 29.9796 31.0928ZM9.87749 6.75C9.87749 4.26825 12.1745 2.25 14.999 2.25C16.3742 2.25 17.6623 2.71575 18.6277 3.56175C19.5931 4.40775 20.1206 5.54175 20.1206 6.75V9H9.87749V6.75ZM26.7684 33.0187C26.2767 33.489 25.6058 33.75 24.876 33.75H5.12213C4.39487 33.75 3.72138 33.489 3.23227 33.0165C2.7406 32.544 2.50757 31.9343 2.57415 31.2952L4.64582 11.25H7.31671V14.625C7.31671 15.246 7.89033 15.75 8.5971 15.75C9.30388 15.75 9.87749 15.246 9.87749 14.625V11.25H20.1206V14.625C20.1206 15.246 20.6942 15.75 21.401 15.75C22.1078 15.75 22.6814 15.246 22.6814 14.625V11.25H25.3523L27.4265 31.2975C27.4931 31.9342 27.2601 32.5462 26.7684 33.0187Z" fill="#16162E"/>
</svg>
