<svg width="39" height="38" viewBox="0 0 39 38" fill="none" xmlns="http://www.w3.org/2000/svg">
<path d="M36.2799 15.7826L23.7751 3.16183C22.3902 1.77389 20.5167 0.996525 18.565 1.00001C16.6133 1.0035 14.7426 1.78755 13.3625 3.18043C11.9824 4.5733 11.2056 6.46145 11.2022 8.43127C11.1987 10.4011 11.9689 12.292 13.3441 13.6898L25.8489 26.312C27.2322 27.7081 29.1083 28.4924 31.0645 28.4924C33.0208 28.4924 34.8969 27.708 36.2801 26.3119C37.6633 24.9157 38.4404 23.0222 38.4404 21.0478C38.4404 19.0734 37.6632 17.1799 36.2799 15.7838V15.7826ZM12.2074 8.42581C12.2085 7.15824 12.5816 5.91939 13.2798 4.86573C13.9779 3.81206 14.9698 2.99083 16.1301 2.50573C17.2904 2.02064 18.5671 1.89345 19.799 2.14021C21.0309 2.38697 22.1627 2.99663 23.0515 3.89219L28.9421 9.83753L19.9583 18.9045L14.068 12.9591C13.4763 12.3652 13.0071 11.6588 12.6877 10.8806C12.3684 10.1024 12.2051 9.26808 12.2074 8.42581ZM35.5563 25.5802C34.3639 26.7804 32.7486 27.4544 31.0646 27.4544C29.3806 27.4544 27.7652 26.7804 26.5728 25.5802L20.6822 19.6351L29.6654 10.5679L35.5563 16.5129C36.7456 17.7164 37.4135 19.3468 37.4135 21.0466C37.4135 22.7463 36.7456 24.3767 35.5563 25.5802Z" fill="#16162E" stroke="#16162E"/>
<path d="M20.6092 6.357C20.6567 6.40498 20.7132 6.44304 20.7753 6.469C20.8374 6.49497 20.904 6.50833 20.9712 6.50833C21.0384 6.50833 21.105 6.49497 21.1671 6.469C21.2292 6.44304 21.2856 6.40498 21.3331 6.357C21.3807 6.30903 21.4184 6.25207 21.4441 6.18939C21.4698 6.12671 21.4831 6.05952 21.4831 5.99168C21.4831 5.92383 21.4698 5.85664 21.4441 5.79396C21.4184 5.73128 21.3807 5.67432 21.3331 5.62635C20.597 4.88506 19.5996 4.46875 18.5597 4.46875C17.5198 4.46875 16.5224 4.88506 15.7862 5.62635C15.7373 5.67399 15.6983 5.73099 15.6715 5.79402C15.6446 5.85704 15.6305 5.92483 15.6299 5.99343C15.6293 6.06203 15.6422 6.13006 15.668 6.19355C15.6937 6.25705 15.7317 6.31474 15.7797 6.36326C15.8278 6.41178 15.8849 6.45015 15.9478 6.47614C16.0107 6.50213 16.0781 6.51521 16.1461 6.51463C16.2141 6.51405 16.2812 6.49981 16.3437 6.47275C16.4061 6.44568 16.4626 6.40634 16.5099 6.357C17.054 5.80928 17.7911 5.50169 18.5595 5.50169C19.328 5.50169 20.0651 5.80928 20.6092 6.357Z" fill="#16162E" stroke="#16162E"/>
<path d="M9.65646 19.5264C7.94442 19.5263 6.27081 20.0387 4.84727 20.9986C3.42374 21.9586 2.31421 23.323 1.659 24.9194C1.00379 26.5158 0.832327 28.2725 1.16629 29.9672C1.50026 31.662 2.32466 33.2187 3.53523 34.4406C4.74581 35.6624 6.28819 36.4946 7.96732 36.8317C9.64646 37.1688 11.3869 36.9958 12.9687 36.3346C14.5504 35.6733 15.9023 34.5535 16.8535 33.1168C17.8046 31.6801 18.3123 29.9909 18.3123 28.263C18.3098 25.9467 17.397 23.7261 15.7743 22.0882C14.1516 20.4503 11.9514 19.529 9.65646 19.5264ZM9.65646 35.9663C8.14689 35.9664 6.67122 35.5146 5.41603 34.6682C4.16085 33.8218 3.18254 32.6187 2.60481 31.2111C2.02709 29.8035 1.8759 28.2546 2.17036 26.7603C2.46483 25.266 3.19172 23.8933 4.25913 22.816C5.32653 21.7386 6.68649 21.0049 8.16705 20.7077C9.6476 20.4104 11.1822 20.5629 12.5769 21.146C13.9716 21.729 15.1636 22.7164 16.0023 23.9832C16.8409 25.25 17.2886 26.7394 17.2886 28.263C17.286 30.305 16.481 32.2627 15.0502 33.7066C13.6195 35.1505 11.6797 35.9627 9.65646 35.9651V35.9663Z" fill="#16162E" stroke="#16162E"/>
<path d="M12.7496 24.4111L5.83938 31.3856C5.79185 31.4335 5.75414 31.4905 5.72842 31.5532C5.70269 31.6158 5.68945 31.683 5.68945 31.7509C5.68945 31.8187 5.70269 31.8859 5.72842 31.9486C5.75414 32.0113 5.79185 32.0682 5.83938 32.1162C5.88692 32.1642 5.94335 32.2022 6.00546 32.2282C6.06756 32.2542 6.13413 32.2675 6.20135 32.2675C6.26857 32.2675 6.33514 32.2542 6.39724 32.2282C6.45935 32.2022 6.51578 32.1642 6.56331 32.1162L13.4736 25.1417C13.5696 25.0449 13.6235 24.9134 13.6235 24.7764C13.6235 24.6394 13.5696 24.508 13.4736 24.4111C13.3776 24.3142 13.2474 24.2598 13.1116 24.2598C12.9758 24.2598 12.8456 24.3142 12.7496 24.4111Z" fill="#16162E" stroke="#16162E"/>
</svg>
