<svg width="34" height="38" viewBox="0 0 34 38" fill="none" xmlns="http://www.w3.org/2000/svg">
<path d="M22.9148 9.32129C25.6303 7.70297 27.2964 4.76951 27.3004 1.59991C27.3004 1.26861 27.0327 1 26.7026 1C23.2528 1.0054 20.1118 2.99619 18.6242 6.12019C17.7081 3.0831 14.921 1.00435 11.7592 1V2.19981C15.059 2.20349 17.733 4.88716 17.7366 8.19886V9.39867H17.7671C17.7539 9.59784 17.7366 9.79581 17.7366 9.99858C16.3179 9.3737 14.7862 9.04841 13.2368 9.04293C6.48961 9.04473 1 15.0906 1 22.5228C1 29.955 6.48961 36.0003 13.2374 36.0003C13.3426 36.0003 13.4473 35.9931 13.5525 35.9907V36.0003H14.5088C15.8215 37.1677 17.743 37.3293 19.2309 36.3974C19.5927 36.1534 20.0153 36.0158 20.4509 36.0003H20.7253V35.9925C27.3422 35.8257 32.68 29.85 32.68 22.5228C32.68 16.0234 28.4815 10.5841 22.9148 9.32129ZM26.0798 2.22441H26.0828C25.8217 5.40758 23.6558 8.11053 20.6141 9.04953C20.5579 9.04953 20.5023 9.04473 20.4455 9.04473V9.10472C20.2854 9.15031 20.1222 9.18691 19.9578 9.2247L25.3374 3.82555L24.4868 2.97549L19.1102 8.37464C19.8282 5.00654 22.6596 2.50794 26.0798 2.22441ZM20.4426 34.8005L20.4455 34.7993C19.7909 34.8153 19.1537 35.015 18.6063 35.3758C17.8742 35.8318 16.9717 35.9179 16.167 35.6085C17.0185 35.3777 17.8408 35.0494 18.6177 34.6301C19.5286 34.136 20.3734 33.5278 21.1317 32.8202L20.3188 31.9401C19.635 32.5793 18.873 33.1287 18.051 33.5749C16.5736 34.3805 14.9188 34.8018 13.2374 34.8005C7.14891 34.8005 2.19547 29.2927 2.19547 22.5228C2.19547 15.7529 7.14891 10.2445 13.2374 10.2445C15.8731 10.2646 18.4033 11.2861 20.3188 13.1031L21.1317 12.223C20.4444 11.5871 19.6863 11.0329 18.8723 10.5715C19.5034 10.5347 20.1287 10.4307 20.7378 10.2613C26.6877 10.4359 31.4845 15.8627 31.4845 22.5228C31.4845 29.2927 26.5311 34.8005 20.4426 34.8005Z" fill="#16162E" stroke="#16162E" stroke-width="0.7"/>
</svg>
