<svg width="51" height="38" viewBox="0 0 51 38" fill="none" xmlns="http://www.w3.org/2000/svg">
<path d="M48.9331 21.7308L48.9231 21.6988C43.6782 5.56807 42.7967 4.25042 42.5108 3.81613C40.6876 1.08183 35.1093 1 34.4795 1C34.0284 1 33.6626 1.36604 33.6626 1.8175C33.6626 2.26895 34.0284 2.63499 34.4795 2.63499C35.95 2.63499 40.0139 3.015 41.1523 4.72383C41.4989 5.24355 42.5917 7.72797 46.0087 18.0488C43.7356 16.2199 40.8093 15.4111 37.9204 15.8135C35.0319 16.2159 32.4374 17.7938 30.7498 20.1744C29.3335 18.834 27.4429 18.1119 25.4941 18.1674C23.5462 18.1127 21.656 18.8352 20.2405 20.176C18.5525 17.7958 15.958 16.2179 13.0695 15.8155C10.181 15.4131 7.25466 16.2219 4.9816 18.0504C8.39777 7.72717 9.49062 5.24275 9.83682 4.72543C10.9755 3.015 15.0386 2.63499 16.5088 2.63499C16.9599 2.63499 17.3257 2.26895 17.3257 1.8175C17.3257 1.36604 16.9599 1 16.5088 1C15.879 1 10.3011 1.08183 8.47754 3.81613C8.18837 4.25042 7.3105 5.56807 2.06719 21.6956L2.05722 21.7276C0.15709 25.6634 0.860266 30.362 3.82852 33.5681C6.79717 36.7742 11.425 37.8328 15.4905 36.2361C19.5564 34.6394 22.2295 30.7132 22.2268 26.3424C22.2252 24.7094 21.8447 23.0987 21.1152 21.6378C22.2236 20.3964 23.8329 19.7222 25.4941 19.8024C27.1558 19.7222 28.7647 20.3964 29.8735 21.6378C27.6567 26.0961 28.8301 31.4968 32.6966 34.6311C36.5631 37.7653 42.086 37.7921 45.9828 34.6957C49.8799 31.5998 51.106 26.2106 48.9331 21.7308ZM11.6077 35.3348C6.64521 35.3348 2.62239 31.3088 2.62239 26.3424C2.62239 21.3759 6.64521 17.3499 11.6077 17.3499C16.5702 17.3499 20.5931 21.3759 20.5931 26.3424C20.5875 31.3064 16.5678 35.3288 11.6077 35.3348ZM39.3806 35.3348C34.4181 35.3348 30.3952 31.3088 30.3952 26.3424C30.3952 21.3759 34.4181 17.3499 39.3806 17.3499C44.3431 17.3499 48.3659 21.3759 48.3659 26.3424C48.3603 31.3064 44.3407 35.3288 39.3806 35.3348Z" fill="#16162E" stroke="#16162E" stroke-width="0.7"/>
</svg>
