<svg width="39" height="38" viewBox="0 0 39 38" fill="none" xmlns="http://www.w3.org/2000/svg">
<path d="M19.7376 36.9998C18.4234 36.9998 17.1098 36.7349 15.8934 36.2058L10.0768 33.6772C7.97251 32.7619 5.74754 32.1822 3.46382 31.9539L1.55369 31.7629C1.23921 31.7316 1 31.4671 1 31.1512V25.1594C1 25.0264 1.04327 24.897 1.12312 24.7907C1.26594 24.5997 4.6894 20.1273 9.91887 21.2909C12.8601 21.9445 15.2282 23.1677 16.6968 24.0787C17.7631 24.7401 19.0129 25.0894 20.3113 25.0894H26.1279C27.1305 25.0894 28.0117 25.6199 28.5045 26.4156L33.5141 20.644C34.4853 19.347 36.0743 18.5527 37.7378 18.5527H38.1121C38.32 18.5527 38.5135 18.6576 38.6268 18.8313C38.7404 19.0051 38.7583 19.225 38.675 19.4149L34.1441 29.7121C33.1535 31.9641 31.1365 33.6653 28.749 34.2622L27.9518 34.4614L23.3148 36.3163C22.1736 36.7725 20.9554 36.9998 19.7376 36.9998ZM2.2298 30.5947L3.58624 30.7304C5.99695 30.9714 8.34574 31.5838 10.5675 32.5498L16.3838 35.0784C18.429 35.9676 20.7876 36.0025 22.8585 35.174L27.5336 33.304C27.5596 33.2938 27.586 33.2854 27.6131 33.2787L28.4507 33.069C30.4723 32.5635 32.1802 31.1234 33.0184 29.2168L37.1511 19.8247C36.0929 19.9806 35.1192 20.5508 34.4706 21.4155L28.921 27.8114C28.9217 27.8353 28.922 27.8589 28.922 27.8832C28.922 29.4236 27.6687 30.677 26.1283 30.677H18.0128C16.9579 30.677 15.9152 30.8462 14.9144 31.1797L14.6886 30.6063L14.4976 30.022L14.5289 30.0118C15.6521 29.6375 16.8252 29.4472 18.0128 29.4472H26.1283C26.9905 29.4472 27.6926 28.7454 27.6926 27.8828C27.6926 27.0203 26.9908 26.3185 26.1283 26.3185H20.3117C18.7839 26.3185 17.31 25.9052 16.0492 25.1232C14.6618 24.2624 12.4253 23.1075 9.65293 22.4908C5.69266 21.6125 2.84294 24.6518 2.23015 25.3768V30.5947H2.2298Z" fill="#16162E" stroke="#16162E" stroke-width="0.5"/>
<path d="M25.213 18.4143C24.2675 18.4143 23.2072 18.1223 22.04 17.5387C21.8986 17.4676 21.7896 17.3445 21.7361 17.1957C21.6886 17.0624 20.59 13.9024 22.3359 11.5656C23.6047 9.86687 25.9905 9.10177 29.4308 9.29348C29.7446 9.31072 29.9947 9.56224 30.0102 9.87672C30.0225 10.1209 30.2761 15.8833 27.3378 17.8018C26.713 18.2102 26.0031 18.4143 25.213 18.4143ZM22.8241 16.552C24.4391 17.3094 25.7301 17.3836 26.6659 16.7725C28.4082 15.6346 28.7849 12.2565 28.7941 10.4983C26.0985 10.4325 24.2632 11.04 23.3208 12.3011C22.1994 13.8029 22.6352 15.8685 22.8241 16.552Z" fill="#16162E" stroke="#16162E" stroke-width="0.5"/>
<path d="M15.8104 10.3588C14.7203 10.3588 13.4627 10.1252 12.3651 9.32138C10.5036 7.9572 9.64805 5.36006 9.82182 1.60241C9.8366 1.28828 10.0857 1.0357 10.3998 1.01706C10.6657 1.00193 16.9604 0.665988 19.0784 3.84532C20.0648 5.32523 19.9839 7.2635 18.8388 9.60737C18.7692 9.74984 18.6475 9.85995 18.4987 9.91447C18.416 9.94508 17.2618 10.3588 15.8104 10.3588ZM18.2866 9.33756H18.2925H18.2866ZM11.0319 2.22681C10.9788 5.23658 11.6707 7.28813 13.0916 8.32938C14.7927 9.57571 17.1155 9.04594 17.8458 8.83312C18.6812 7.02008 18.752 5.57253 18.0554 4.52706C16.7609 2.58386 12.9646 2.20394 11.0319 2.22681Z" fill="#16162E" stroke="#16162E" stroke-width="0.5"/>
<path d="M20.6113 26.1031C20.5919 26.1031 20.5726 26.102 20.5529 26.1003C20.2254 26.0693 19.9802 25.7861 19.9967 25.4572C20.0329 24.734 20.0949 24.048 20.1789 23.3979C20.4347 19.0472 20.3028 8.91542 13.897 6.11249C13.586 5.97635 13.4439 5.61403 13.58 5.30271C13.7158 4.99209 14.0792 4.85033 14.3898 4.98611C18.1647 6.63769 20.5395 10.7496 21.2561 16.8771C21.3204 17.4262 21.3686 17.9676 21.4045 18.4949C23.0916 14.2318 25.6726 12.7255 25.8263 12.6393C26.1218 12.4722 26.4968 12.5784 26.6635 12.8736C26.8292 13.1691 26.7251 13.543 26.4307 13.7097C26.3656 13.7477 22.4078 16.1229 21.4144 23.4475C21.3387 24.7006 21.2297 25.4994 21.2195 25.5726C21.1769 25.8794 20.9148 26.1031 20.6113 26.1031Z" fill="#16162E" stroke="#16162E" stroke-width="0.5"/>
</svg>
