<svg width="38" height="38" viewBox="0 0 38 38" fill="none" xmlns="http://www.w3.org/2000/svg">
<path d="M36.9647 15.8871C36.987 15.8008 36.999 15.7096 36.999 15.6246C36.999 7.42173 30.7665 1 23.4994 1H21.812C21.3574 1 20.954 1.29123 20.8109 1.72272L16.5506 14.5699H7.4038L6.04463 10.1526C5.52011 8.44805 3.87942 7.25763 2.05466 7.25763C1.4722 7.25763 1 7.72983 1 8.31228C1 8.89473 1.4722 9.36694 2.05466 9.36694C2.94774 9.36694 3.77789 9.95825 4.02855 10.7729C5.77492 16.4485 5.83848 16.5583 7.61115 21.5218C8.25885 23.3354 10.2965 24.554 12.6815 24.554H16.3166L15.332 27.0153C12.2642 26.4979 9.50756 28.8751 9.50756 31.9366C9.50756 34.7057 11.7499 36.9989 14.4996 36.9989C16.9164 36.9989 18.9049 35.2384 19.3805 32.9912H23.1184C23.3162 33.9261 23.7751 34.7904 24.4603 35.4925C26.4216 37.5022 29.5764 37.5028 31.5382 35.4925C32.4752 34.5324 32.9913 33.2695 32.9913 31.9366C32.9913 28.8746 30.2341 26.4981 27.1669 27.0153L26.1822 24.554H29.8174C32.1998 24.554 34.2356 23.338 34.8856 21.5277C37.0651 15.6344 36.9428 15.9723 36.9647 15.8871ZM22.5733 3.10931H23.4994C29.4569 3.10931 34.3608 8.16048 34.8497 14.5699H18.7729L22.5733 3.10931ZM14.4996 34.8896C12.937 34.8896 11.6169 33.5373 11.6169 31.9366C11.6169 30.3471 12.9101 29.0539 14.4996 29.0539C16.0891 29.0539 17.3823 30.3471 17.3823 31.9366C17.3823 33.5373 16.0622 34.8896 14.4996 34.8896ZM30.8819 31.9366C30.8819 33.5373 29.5618 34.8896 27.9992 34.8896C26.4365 34.8896 25.1165 33.5373 25.1165 31.9366C25.1165 30.3471 26.4097 29.0539 27.9992 29.0539C29.5887 29.0539 30.8819 30.3471 30.8819 31.9366ZM25.2086 27.7993C24.1606 28.5085 23.396 29.6053 23.1204 30.8819H19.3786C19.1028 29.6053 18.3383 28.5085 17.2903 27.7993L18.5885 24.554H23.9103L25.2086 27.7993ZM32.9054 20.8012C32.4915 21.9186 31.027 22.4447 29.8174 22.4447C29.2675 22.4447 13.2943 22.4447 12.6816 22.4447C11.2324 22.4447 9.93533 21.7582 9.59756 20.8123L8.12146 16.6792H34.4299L32.9054 20.8012Z" fill="#16162E" stroke="#16162E" stroke-width="0.1"/>
</svg>
