<svg width="47" height="38" viewBox="0 0 47 38" fill="none" xmlns="http://www.w3.org/2000/svg">
<path d="M39.2792 11.9103C39.112 11.5513 38.7493 11.3193 38.3552 11.3193H37.5558C37.1616 11.3193 36.799 11.5514 36.6318 11.9103C36.4647 12.2693 36.5197 12.698 36.772 13.0025L37.1716 13.4848C37.366 13.7196 37.6517 13.8543 37.9555 13.8543C38.2593 13.8543 38.545 13.7196 38.7394 13.4849L39.139 13.0025C39.3914 12.698 39.4464 12.2693 39.2792 11.9103Z" fill="#16162E" stroke="#16162E" stroke-width="0.2"/>
<path d="M35.2238 8.31348C34.9908 8.31348 34.7623 8.40882 34.5975 8.57456C34.4327 8.74119 34.3379 8.9702 34.3379 9.20455C34.3379 9.4398 34.4327 9.6688 34.5975 9.83454C34.7623 10.0012 34.9908 10.0966 35.2238 10.0966C35.4568 10.0966 35.6854 10.0013 35.8502 9.83454C36.015 9.66969 36.1098 9.4398 36.1098 9.20455C36.1098 8.9702 36.015 8.7403 35.8502 8.57456C35.6854 8.40882 35.4568 8.31348 35.2238 8.31348Z" fill="#16162E" stroke="#16162E" stroke-width="0.2"/>
<path d="M40.6867 10.0956C40.9197 10.0956 41.1483 10.0012 41.3131 9.83454C41.4779 9.6688 41.5727 9.4398 41.5727 9.20455C41.5727 8.9702 41.4779 8.7403 41.3131 8.57456C41.1483 8.40882 40.9197 8.31348 40.6867 8.31348C40.4528 8.31348 40.2251 8.40882 40.0595 8.57456C39.8947 8.7403 39.8008 8.9702 39.8008 9.20455C39.8008 9.4398 39.8947 9.6688 40.0595 9.83454C40.2243 10.0012 40.4528 10.0956 40.6867 10.0956Z" fill="#16162E" stroke="#16162E" stroke-width="0.2"/>
<path d="M40.6049 17.5607C43.8972 16.7967 46.36 13.8263 46.36 10.2863C46.36 8.72127 45.867 7.19094 44.9632 5.92677C45.0657 5.48337 45.1355 5.03079 45.1711 4.5759C45.2288 3.83746 45.1973 3.09555 45.0774 2.37066C44.9949 1.8722 44.6946 1.44671 44.2535 1.20336C43.8123 0.959914 43.294 0.933806 42.8318 1.13171C41.8271 1.56175 40.9218 2.16144 40.1347 2.91796C39.7369 2.85238 39.3355 2.81932 38.936 2.81932H36.9746C36.578 2.81932 36.1795 2.85193 35.7846 2.91654C34.9978 2.16073 34.093 1.56148 33.0889 1.13171C32.6265 0.933806 32.1083 0.959914 31.6671 1.20344C31.226 1.44689 30.9257 1.87238 30.8432 2.37075C30.7233 3.09555 30.6918 3.83746 30.7495 4.57608C30.785 5.02705 30.8538 5.47606 30.9549 5.91599C30.6167 6.38728 30.336 6.89581 30.1164 7.42939H17.5966C15.7967 7.42939 14.0621 7.81318 12.4413 8.56997C11.9975 8.77723 11.8047 9.30706 12.0108 9.7534C12.1608 10.0783 12.4808 10.2695 12.815 10.2695C12.9399 10.2695 13.0667 10.2428 13.1875 10.1865C14.5728 9.53955 16.0563 9.21154 17.5967 9.21154H29.6296C29.5781 9.56619 29.5507 9.9252 29.5507 10.2864C29.5507 14.4037 32.8811 17.7534 36.9746 17.7534H38.7296C38.0718 20.0419 36.5426 21.9802 34.4615 23.1503L33.9915 22.1406C33.7839 21.6949 33.2565 21.5028 32.8135 21.7115C32.3703 21.9201 32.1793 22.4506 32.3868 22.8963L34.7789 28.0349C34.822 28.1275 34.8806 28.2119 34.9521 28.2845L35.9841 29.3312C36.2236 29.5743 36.1482 29.8454 36.1046 29.9506C36.061 30.0558 35.9228 30.3006 35.5825 30.3006H33.0634C33.0634 30.3006 23.4784 17.8148 23.4558 17.7912C22.1534 16.1486 20.1487 15.0929 17.9023 15.0929C17.413 15.0929 17.0163 15.4918 17.0163 15.984C17.0163 16.4761 17.413 16.8751 17.9023 16.8751C20.8415 16.8751 23.2327 19.2802 23.2327 22.2364C23.2327 23.9315 22.4212 25.5455 21.0618 26.5538C20.7538 26.7823 20.6265 27.1837 20.746 27.5493C20.8656 27.915 21.205 28.162 21.5876 28.162H22.9951C24.3478 28.162 25.4952 29.0635 25.8743 30.3006H17.5966C11.8159 30.3004 7.11297 25.5702 7.11297 19.7559C7.11297 18.216 7.43527 16.7321 8.07093 15.3456C8.27585 14.8987 8.08174 14.3694 7.63736 14.1633C7.19315 13.9573 6.66672 14.1525 6.4618 14.5993C5.71815 16.2215 5.34109 17.9565 5.34109 19.7559C5.34109 20.8879 5.49436 21.9845 5.77981 23.0265C2.96093 24.0233 1 26.7379 1 29.8109C1 33.7749 4.20639 37 8.14766 37H31.8897C32.379 37 32.7757 36.6011 32.7757 36.1089C32.7757 34.5467 32.1582 33.1277 31.1571 32.0826H35.5824C36.5435 32.0826 37.3703 31.5283 37.74 30.6359C38.1097 29.7435 37.919 28.7628 37.2421 28.0762L36.3183 27.1392L35.2143 24.7677C37.968 23.262 39.9333 20.6388 40.6049 17.5607ZM31.3225 10.2862C31.3225 8.97345 31.778 7.69279 32.6052 6.68017C32.7898 6.45411 32.8524 6.15123 32.7726 5.86992C32.6405 5.40398 32.5542 4.92146 32.5161 4.43591C32.4744 3.90367 32.4904 3.36974 32.5633 2.84588C33.4243 3.24018 34.1911 3.79362 34.8445 4.49285C35.0607 4.72417 35.3829 4.82237 35.6905 4.75055C36.1143 4.65155 36.5464 4.60129 36.9746 4.60129H38.936C39.3668 4.60129 39.8012 4.65209 40.2274 4.75224C40.5354 4.82469 40.8582 4.72649 41.0747 4.49463C41.7284 3.7946 42.4957 3.24062 43.3576 2.84596C43.4306 3.36983 43.4464 3.90376 43.4048 4.43591C43.37 4.8802 43.2948 5.32155 43.1812 5.75007C43.0466 6.05205 43.0874 6.41347 43.3053 6.68017C44.1326 7.69279 44.5881 8.97345 44.5881 10.2864C44.5881 13.4211 42.0526 15.9712 38.936 15.9712H36.9746C33.8579 15.9712 31.3225 13.4209 31.3225 10.2862ZM23.651 26.4248C24.43 25.3405 24.9006 24.046 24.9883 22.695L30.825 30.3005H27.6968C27.3199 28.2839 25.688 26.7069 23.651 26.4248ZM8.14766 35.2178C5.1834 35.2178 2.77188 32.7923 2.77188 29.8109C2.77188 27.4965 4.24988 25.4524 6.37365 24.7053C8.27275 29.0448 12.5883 32.0826 17.5967 32.0826H27.0007C28.9036 32.0826 30.5007 33.425 30.9049 35.2178H8.14766V35.2178Z" fill="#16162E" stroke="#16162E" stroke-width="0.2"/>
<path d="M9.54814 12.5693C9.78202 12.5693 10.0097 12.4739 10.1754 12.3082C10.3402 12.1424 10.4341 11.9125 10.4341 11.6782C10.4341 11.4438 10.3402 11.2139 10.1754 11.0482C10.0097 10.8825 9.78202 10.7871 9.54814 10.7871C9.31514 10.7871 9.08745 10.8825 8.92178 11.0482C8.757 11.2139 8.66309 11.4438 8.66309 11.6782C8.66309 11.9125 8.757 12.1424 8.92178 12.3082C9.08745 12.4738 9.31514 12.5693 9.54814 12.5693Z" fill="#16162E" stroke="#16162E" stroke-width="0.2"/>
</svg>
