<svg width="40" height="40" viewBox="0 0 40 40" fill="none" xmlns="http://www.w3.org/2000/svg">
<rect width="40" height="40" rx="9" fill="#44B029"/>
<g clip-path="url(#clip0_549_49)">
<path d="M20 8C13.3625 8 8 13.3564 8 20C8 26.6436 13.3564 32 20 32C26.6436 32 32 26.6436 32 20C32 13.3564 26.6375 8 20 8ZM20 30.3955C14.2409 30.3955 9.60445 25.759 9.60445 20C9.60445 14.2409 14.241 9.60441 20 9.60441C25.759 9.60441 30.3955 14.2409 30.3955 20C30.3955 25.759 25.7591 30.3955 20 30.3955Z" fill="white" stroke="white" stroke-width="0.01"/>
<path d="M25.7589 16.4802C25.4417 16.1629 24.9597 16.1629 24.6364 16.4801L18.4808 22.6357L15.3634 19.5183C15.0461 19.2011 14.5642 19.2011 14.2408 19.5183C13.9236 19.8355 13.9236 20.3175 14.2408 20.6408L17.9195 24.3195C18.0781 24.4781 18.2367 24.5574 18.4808 24.5574C18.7187 24.5574 18.8834 24.4781 19.0421 24.3195L25.7589 17.6027C26.0761 17.2855 26.0761 16.8036 25.7589 16.4802Z" fill="white" stroke="white" stroke-width="0.01"/>
</g>
<defs>
<clipPath id="clip0_549_49">
<rect width="24" height="24" fill="white" transform="translate(8 8)"/>
</clipPath>
</defs>
</svg>
