<svg width="40" height="40" viewBox="0 0 40 40" fill="none" xmlns="http://www.w3.org/2000/svg">
<rect width="40" height="40" rx="9" fill="#30DFB8"/>
<g clip-path="url(#clip0_549_45)">
<path d="M31.9999 12.1152C31.9999 12.1126 31.9996 12.11 31.9995 12.1073C31.9992 12.0968 31.9986 12.0865 31.9974 12.0763C31.9969 12.0726 31.9962 12.0688 31.9957 12.0651C31.9943 12.0556 31.9925 12.0464 31.9904 12.0373C31.9895 12.0337 31.9886 12.0301 31.9876 12.0265C31.9849 12.0166 31.9818 12.0069 31.9782 11.9973C31.9776 11.9955 31.9771 11.9936 31.9764 11.9918L31.0228 9.55051C30.9266 9.30451 30.6938 9.14551 30.4297 9.14551H28.6932C28.504 9.14551 28.3505 9.29893 28.3505 9.48821C28.3505 9.67749 28.504 9.83091 28.6932 9.83091H30.3965L31.1554 11.7738H23.9801L23.5305 9.83091H26.1805C26.3698 9.83091 26.5232 9.67749 26.5232 9.48821C26.5232 9.29893 26.3698 9.14551 26.1805 9.14551H23.0995H19.6463H12.3161C12.0519 9.14551 11.8191 9.30451 11.723 9.5506L10.7693 11.9918C10.7686 11.9937 10.7682 11.9955 10.7675 11.9973C10.764 12.0068 10.7609 12.0165 10.7581 12.0265C10.7572 12.0301 10.7562 12.0337 10.7554 12.0373C10.7532 12.0464 10.7515 12.0557 10.7501 12.0651C10.7495 12.0688 10.7488 12.0726 10.7483 12.0763C10.7472 12.0865 10.7465 12.0968 10.7462 12.1073C10.7462 12.1099 10.7459 12.1125 10.7458 12.1152C10.7458 12.1156 10.7458 12.1161 10.7458 12.1165V17.1513C10.7458 17.3406 10.8992 17.494 11.0885 17.494C11.2777 17.494 11.4312 17.3406 11.4312 17.1513V12.4592H18.6955V17.6684C18.6955 17.8721 18.8155 18.0577 19.0012 18.1413C19.0692 18.1719 19.1417 18.1868 19.2136 18.1868C19.3381 18.1868 19.4613 18.1421 19.5578 18.0565L21.3729 16.4485L23.1879 18.0565C23.3403 18.1916 23.5588 18.2248 23.7446 18.1413C23.9303 18.0576 24.0503 17.8721 24.0503 17.6684V12.4592H31.3146V27.8306C31.3146 28.0765 31.1145 28.2766 30.8686 28.2766H24.5848C24.5848 28.2727 24.5844 28.2688 24.5843 28.2649C24.5839 28.2342 24.5828 28.2035 24.5802 28.173C25.1702 28.3294 25.8006 28.0262 26.0371 27.4464C26.1614 27.1413 26.1596 26.8062 26.0319 26.5026C26.0198 26.474 26.0065 26.4463 25.9926 26.419C25.99 26.4139 25.9875 26.4089 25.9849 26.4039C25.9712 26.3778 25.9566 26.3524 25.9412 26.3276C25.9382 26.3228 25.9351 26.3181 25.932 26.3133C25.9157 26.2878 25.8988 26.2629 25.8807 26.2388C25.8804 26.2383 25.88 26.2379 25.8797 26.2375C25.8618 26.2137 25.8429 26.1909 25.8233 26.1685C25.8198 26.1644 25.8162 26.1603 25.8126 26.1562C25.7933 26.1347 25.7732 26.1138 25.7523 26.0937C25.7483 26.0898 25.7441 26.086 25.74 26.0821C25.7182 26.0616 25.6959 26.0417 25.6727 26.0229C25.6719 26.0223 25.6711 26.0217 25.6703 26.0211C25.6474 26.0027 25.6236 25.9852 25.5994 25.9684C25.595 25.9654 25.5907 25.9623 25.5863 25.9593C25.562 25.943 25.5372 25.9276 25.5117 25.9129C25.5096 25.9117 25.5077 25.9103 25.5055 25.9091C25.6503 25.7837 25.7647 25.6251 25.8391 25.4426C25.9635 25.1375 25.9616 24.8024 25.8339 24.4988C25.7222 24.2331 25.5257 24.0195 25.2741 23.8869C25.2381 23.868 25.201 23.8507 25.1629 23.8352L19.8292 21.6603L22.312 20.8918C22.9026 20.709 23.2353 20.079 23.0535 19.4876C22.9857 19.2668 22.8512 19.0806 22.6775 18.9445C22.419 18.742 22.0735 18.6505 21.7308 18.7225C21.7292 18.7228 21.7276 18.7231 21.7259 18.7236C21.7069 18.7278 19.8036 19.1558 17.8158 19.5434C17.7276 19.5606 17.6417 19.5772 17.557 19.5935C17.4892 19.6065 17.4224 19.6194 17.3568 19.6318C17.338 19.6355 17.3191 19.639 17.3004 19.6426C17.1846 19.6646 17.0724 19.6856 16.9634 19.7059C16.9195 19.714 16.876 19.7221 16.8332 19.73C14.3368 20.1898 13.6355 20.1981 13.4409 20.1718C13.4401 20.1717 13.4395 20.1716 13.4387 20.1714C13.4358 20.171 13.4329 20.1706 13.4302 20.1702C13.4282 20.1698 13.4264 20.1695 13.4245 20.1692C13.4232 20.169 13.4218 20.1688 13.4205 20.1686C13.4084 20.1664 13.3989 20.1641 13.3916 20.1619L13.3355 20.139L13.4054 19.9674C13.4743 19.7986 13.4732 19.6132 13.4026 19.4452C13.3849 19.4032 13.3634 19.3636 13.3385 19.3266C13.2637 19.2159 13.1579 19.1296 13.0313 19.078L11.1906 18.3275C11.0219 18.2586 10.8364 18.2597 10.6685 18.3304C10.5005 18.401 10.3701 18.5329 10.3013 18.7016L8.0505 24.2217C7.90847 24.57 8.07633 24.9689 8.42466 25.111L10.2654 25.8616C10.3494 25.8958 10.4364 25.9121 10.522 25.9121C10.7912 25.9121 11.0469 25.7516 11.1547 25.4874L11.1716 25.4459L11.596 25.6189C11.5962 25.619 11.5965 25.6192 11.5967 25.6193C12.0027 25.7848 12.3767 26.0209 12.7004 26.314C12.7593 26.3673 12.8165 26.4225 12.8719 26.4794C12.9274 26.5364 12.981 26.5952 13.0328 26.6556C13.0587 26.6859 13.0841 26.7166 13.109 26.7476C13.5807 27.3358 14.1991 27.7972 14.8972 28.0819L15.3747 28.2766H11.8772C11.6313 28.2766 11.4312 28.0765 11.4312 27.8305V26.9634C11.4312 26.7741 11.2778 26.6207 11.0885 26.6207C10.8992 26.6207 10.7458 26.7741 10.7458 26.9634V27.8305C10.7458 28.4544 11.2533 28.962 11.8772 28.962H17.0556L21.4704 30.7621C21.6223 30.824 21.7796 30.8534 21.9344 30.8534C22.4209 30.8534 22.883 30.5635 23.0778 30.0858C23.1576 29.89 23.1833 29.6852 23.1618 29.4884C23.3914 29.5213 23.6295 29.4911 23.8453 29.3979C24.0646 29.3032 24.2464 29.1523 24.3755 28.9619H30.8686C31.4925 28.9619 32 28.4544 32 27.8305V12.1165C32 12.1161 31.9999 12.1157 31.9999 12.1152ZM19.9188 9.83091H22.827L23.2766 11.7738H19.4692L19.9188 9.83091ZM18.7657 11.7738H11.5903L12.3493 9.83091H19.2153L18.7657 11.7738ZM23.365 17.2976H23.365L21.7167 15.8375C21.6187 15.7507 21.4958 15.7072 21.373 15.7072C21.2501 15.7072 21.1271 15.7507 21.0291 15.8375L19.3809 17.2976V12.4592H23.365V17.2976ZM10.5212 25.2257L8.68636 24.4775L10.9348 18.9634L12.7696 19.7116L10.5212 25.2257ZM24.2126 27.2938L23.8193 27.1334C23.8191 27.1333 23.8189 27.1333 23.8188 27.1332C23.8186 27.1331 23.8185 27.1331 23.8183 27.133C23.8183 27.133 23.8182 27.133 23.8182 27.133L19.722 25.4628C19.5468 25.3913 19.3467 25.4754 19.2753 25.6507C19.2038 25.826 19.2879 26.026 19.4632 26.0975L23.5595 27.7677C23.5766 27.7747 23.5932 27.7825 23.6092 27.7909C23.6137 27.7933 23.6178 27.7962 23.6223 27.7987C23.6335 27.8051 23.6448 27.8115 23.6554 27.8186C23.6606 27.822 23.6652 27.8259 23.6702 27.8295C23.6796 27.8362 23.6892 27.8429 23.6981 27.8502C23.7035 27.8546 23.7084 27.8595 23.7136 27.8641C23.7216 27.8712 23.7297 27.878 23.7372 27.8855C23.7424 27.8907 23.7471 27.8964 23.7521 27.9017C23.7589 27.9091 23.766 27.9164 23.7725 27.9242C23.7774 27.9301 23.7817 27.9364 23.7864 27.9426C23.7923 27.9503 23.7984 27.9578 23.8038 27.9658C23.8083 27.9724 23.8122 27.9795 23.8164 27.9863C23.8213 27.9941 23.8264 28.0019 23.8309 28.01C23.8349 28.0173 23.8383 28.0249 23.842 28.0324C23.8459 28.0404 23.8502 28.0483 23.8538 28.0565C23.8572 28.0644 23.86 28.0725 23.863 28.0805C23.8661 28.0886 23.8695 28.0966 23.8722 28.1049C23.8749 28.1132 23.877 28.1216 23.8793 28.13C23.8816 28.1383 23.8841 28.1465 23.8861 28.1549C23.888 28.1634 23.8892 28.172 23.8908 28.1805C23.8923 28.189 23.8941 28.1975 23.8952 28.2061C23.8963 28.2147 23.8968 28.2235 23.8975 28.2321C23.8982 28.2408 23.8992 28.2495 23.8995 28.2582C23.8998 28.2668 23.8993 28.2755 23.8992 28.2841C23.8991 28.293 23.8993 28.3019 23.8987 28.3109C23.8982 28.3194 23.8969 28.3278 23.896 28.3363C23.895 28.3455 23.8943 28.3546 23.8928 28.3637C23.8914 28.372 23.8893 28.3803 23.8876 28.3887C23.8856 28.3979 23.884 28.4072 23.8815 28.4163C23.8793 28.4245 23.8764 28.4325 23.8738 28.4406C23.8709 28.4498 23.8683 28.459 23.8648 28.468C23.8619 28.4742 23.8591 28.4805 23.8564 28.4868C23.8558 28.4883 23.8555 28.4898 23.8549 28.4912C23.8014 28.6148 23.7026 28.713 23.5735 28.7688C23.4315 28.83 23.2689 28.8322 23.1273 28.7744L22.4015 28.4785C22.3982 28.4771 22.3947 28.4762 22.3914 28.4749C22.3879 28.4734 22.3847 28.4716 22.3812 28.4702L19.0496 27.1117C18.8742 27.0403 18.6743 27.1244 18.6028 27.2997C18.5314 27.475 18.6155 27.675 18.7908 27.7465L22.1224 29.1049C22.126 29.1064 22.1296 29.1074 22.1332 29.1087C22.1365 29.1101 22.1395 29.1119 22.1428 29.1132C22.4224 29.2272 22.5572 29.5475 22.4432 29.8271C22.3291 30.1068 22.009 30.2416 21.7293 30.1275L17.2529 28.3023C17.2528 28.3022 17.2526 28.3021 17.2524 28.302L15.1561 27.4472C14.7871 27.2967 14.4445 27.0879 14.142 26.831C13.9605 26.6768 13.7935 26.5054 13.6439 26.3188C13.4964 26.135 13.3347 25.9636 13.1607 25.8061C12.7779 25.4595 12.3356 25.1803 11.8557 24.9845C11.8556 24.9845 11.8556 24.9845 11.8555 24.9845L11.4306 24.8112L12.277 22.7354L13.0769 20.7737L13.1359 20.7978C13.1914 20.8204 13.2706 20.8526 13.4838 20.8606C13.7502 20.8727 14.1908 20.8449 14.9802 20.7334C15.5171 20.6575 16.1758 20.5478 16.9446 20.4064C16.9636 20.4029 16.9824 20.3994 17.0015 20.3959C17.0375 20.3893 17.0738 20.3825 17.1103 20.3758C17.1386 20.3705 17.1671 20.3652 17.1958 20.3598C17.2286 20.3536 17.2614 20.3475 17.2945 20.3413C17.3296 20.3346 17.3652 20.3279 17.4009 20.3211C17.4295 20.3157 17.458 20.3103 17.4869 20.3048C17.5304 20.2965 17.5747 20.288 17.6192 20.2795C17.642 20.2751 17.6647 20.2708 17.6878 20.2664C17.7558 20.2533 17.8248 20.24 17.895 20.2263C19.876 19.841 21.788 19.4121 21.8739 19.3928C21.8825 19.3911 21.8911 19.39 21.8996 19.3888C22.1198 19.3562 22.3354 19.4835 22.3986 19.6889C22.4208 19.7611 22.4233 19.8347 22.4094 19.904C22.3787 20.0565 22.2679 20.1881 22.1095 20.2371L18.7119 21.2886C18.5735 21.3315 18.4771 21.4565 18.4708 21.6012C18.4646 21.7458 18.5498 21.8787 18.6838 21.9334L24.9043 24.4699C25.0398 24.5251 25.1456 24.6297 25.2024 24.7646C25.2591 24.8995 25.2599 25.0483 25.2047 25.1838C25.1494 25.3192 25.0448 25.4251 24.9099 25.4818C24.8425 25.5101 24.7716 25.5244 24.7006 25.5249C24.6995 25.5249 24.6985 25.5247 24.6975 25.5247C24.6808 25.5247 24.6641 25.5241 24.6475 25.5225C24.6426 25.5221 24.6377 25.521 24.6328 25.5205C24.6201 25.5189 24.6074 25.5175 24.5948 25.515C24.5868 25.5135 24.5789 25.5111 24.571 25.5093C24.5615 25.507 24.552 25.5051 24.5426 25.5023C24.5329 25.4995 24.5234 25.4957 24.5139 25.4922C24.5063 25.4895 24.4985 25.4873 24.491 25.4842L20.3944 23.8138C20.2191 23.7423 20.0191 23.8264 19.9476 24.0018C19.8762 24.177 19.9603 24.377 20.1356 24.4485L25.1022 26.4737C25.1361 26.4874 25.1681 26.5044 25.198 26.5241C25.2876 26.5831 25.3578 26.6673 25.4003 26.7684C25.4499 26.8864 25.4568 27.0151 25.4207 27.1362C25.4155 27.1535 25.4095 27.1706 25.4026 27.1876C25.3954 27.2051 25.3875 27.222 25.3788 27.2383C25.3586 27.2763 25.334 27.3106 25.3066 27.3418C25.2895 27.3612 25.2713 27.3793 25.2519 27.3959C25.2488 27.3986 25.246 27.4016 25.2428 27.4041C25.1178 27.5064 24.9506 27.5503 24.7872 27.5173C24.7541 27.5106 24.7211 27.5011 24.6887 27.4879L24.2126 27.2938Z" fill="white" stroke="white" stroke-width="0.4"/>
</g>
<defs>
<clipPath id="clip0_549_45">
<rect width="24" height="24" fill="white" transform="translate(8 8)"/>
</clipPath>
</defs>
</svg>
