<svg width="36" height="9" viewBox="0 0 36 9" fill="none" xmlns="http://www.w3.org/2000/svg">
<path d="M34.682 1.2653C36.4393 2.95236 36.4393 5.68764 34.682 7.3747C32.9246 9.06177 30.0754 9.06177 28.318 7.3747C26.5607 5.68764 26.5607 2.95236 28.318 1.2653C30.0754 -0.421765 32.9246 -0.421765 34.682 1.2653Z" fill="#16162E"/>
<path d="M21.182 1.2653C22.9393 2.95236 22.9393 5.68764 21.182 7.3747C19.4246 9.06177 16.5754 9.06177 14.818 7.3747C13.0607 5.68764 13.0607 2.95236 14.818 1.2653C16.5754 -0.421765 19.4246 -0.421765 21.182 1.2653Z" fill="#16162E"/>
<path d="M7.68197 1.2653C9.43933 2.95236 9.43933 5.68764 7.68197 7.3747C5.92462 9.06177 3.07537 9.06177 1.31802 7.3747C-0.439338 5.68764 -0.439338 2.95236 1.31802 1.2653C3.07537 -0.421765 5.92462 -0.421765 7.68197 1.2653Z" fill="#16162E"/>
</svg>
