<svg width="136" height="135" viewBox="0 0 136 135" fill="none" xmlns="http://www.w3.org/2000/svg">
<path fill-rule="evenodd" clip-rule="evenodd" d="M135.816 111.417L67.9079 90.8828L0 111.417L67.9079 134.737L135.816 111.417Z" fill="#D8D8D8"/>
<path fill-rule="evenodd" clip-rule="evenodd" d="M67.9082 42.7747L83.8463 40.9658L133.616 55.8772L115.429 57.1483L88.0508 53.1883L67.9082 42.7747Z" fill="#66D47A"/>
<path fill-rule="evenodd" clip-rule="evenodd" d="M20.3867 57.1484L67.9076 73.4776L77.2455 101.051L67.9076 127.207L20.3867 110.878V57.1484Z" fill="#66D47A"/>
<path fill-rule="evenodd" clip-rule="evenodd" d="M115.429 57.1484L67.9082 73.4776V127.207L115.429 110.878V57.1484Z" fill="#40AA54"/>
<path fill-rule="evenodd" clip-rule="evenodd" d="M20.3868 57.1484L7.1377 72.6465L53.7296 90.0512L67.9077 73.4776L20.3868 57.1484Z" fill="#66D47A"/>
<path fill-rule="evenodd" clip-rule="evenodd" d="M20.3867 81.4955L53.7295 93.9623L67.9076 73.4775L53.7295 90.0512L20.3867 77.5843V81.4955Z" fill="#40AA54"/>
<path fill-rule="evenodd" clip-rule="evenodd" d="M115.429 57.1484L128.678 72.6465L82.0862 90.0512L67.9082 73.4776L115.429 57.1484Z" fill="#66D47A"/>
<path fill-rule="evenodd" clip-rule="evenodd" d="M115.429 81.4955L82.0862 93.9623L67.9082 73.4775L82.0862 90.0512L115.429 77.5843V81.4955Z" fill="#2E9041"/>
<path fill-rule="evenodd" clip-rule="evenodd" d="M67.907 42.7757L51.969 40.9668L2.19922 55.8782L20.3862 57.1493L47.7645 53.1892L67.907 42.7757Z" fill="#66D47A"/>
<path fill-rule="evenodd" clip-rule="evenodd" d="M115.428 57.1479L67.9076 42.8232L20.3867 57.1479L67.9076 73.4771L115.428 57.1479Z" fill="#2E8F41"/>
<path fill-rule="evenodd" clip-rule="evenodd" d="M65.6124 10.6061C58.5723 7.47714 55.3945 3.76152 49.6255 0.339235C46.7899 -0.589671 44.1987 0.437013 43.1232 2.83261C41.852 7.57492 37.1586 16.3751 44.4921 17.7929H65.5636L65.6124 10.6061Z" fill="#BA7331"/>
<path fill-rule="evenodd" clip-rule="evenodd" d="M65.6143 10.6061C58.5742 7.47714 55.3963 3.76152 49.6273 0.339235C46.7917 -0.589671 44.2006 0.437013 43.125 2.83261C42.7828 4.05485 42.1961 5.61933 41.7072 7.1838C40.7294 10.9483 40.7294 14.5662 45.1784 15.4462H65.5654L65.6143 10.6061Z" fill="#F7CE7F"/>
<path fill-rule="evenodd" clip-rule="evenodd" d="M72.7031 10.6061C79.7432 7.47714 82.9211 3.76152 88.6901 0.339235C91.5257 -0.589671 94.1168 0.437013 95.1924 2.83261C96.4635 7.57492 101.157 16.3751 93.8235 17.7929H72.8009L72.7031 10.6061Z" fill="#BA7331"/>
<path fill-rule="evenodd" clip-rule="evenodd" d="M72.7031 10.6061C79.7432 7.47714 82.9211 3.76152 88.6901 0.339235C91.5257 -0.589671 94.1168 0.437013 95.1924 2.83261C95.5346 4.05485 96.1213 5.61933 96.6102 7.1838C97.588 10.9483 97.588 14.5662 93.0902 15.4462H72.7031V10.6061Z" fill="#F7CE7F"/>
<path fill-rule="evenodd" clip-rule="evenodd" d="M65.2217 17.8421H73.1908V10.6064C73.1908 9.77528 72.5063 9.09082 71.6752 9.09082H66.6884C65.8573 9.09082 65.1729 9.77528 65.1729 10.6064L65.2217 17.8421Z" fill="#E5BB57"/>
<path fill-rule="evenodd" clip-rule="evenodd" d="M64.0483 9.87256C64.0483 9.87256 63.9994 12.4148 63.755 12.4637C63.5105 12.5126 61.946 11.8282 61.946 11.8282L57.4971 9.48145C59.2082 11.0459 61.066 12.7082 64.1461 13.9304L64.3416 15.9349L65.2217 17.0105V10.4103L64.0483 9.87256Z" fill="#BA7331"/>
<path fill-rule="evenodd" clip-rule="evenodd" d="M74.4136 9.87256C74.4136 9.87256 74.4625 12.4148 74.7069 12.4637C74.9514 12.5126 76.5159 11.8282 76.5159 11.8282L80.9648 9.48145C79.2537 11.0459 77.3959 12.7082 74.3158 13.9304L74.1203 15.9349L73.2402 17.0105V10.4103L74.4136 9.87256Z" fill="#BA7331"/>
<path fill-rule="evenodd" clip-rule="evenodd" d="M22.0518 30.3085L69.2304 31.1885L116.409 30.3085V24.1973H69.2304H22.0518V30.3085Z" fill="#2E9041"/>
<path fill-rule="evenodd" clip-rule="evenodd" d="M22.0518 19.455L69.2304 13.3438V24.1973L22.0518 30.3085V19.455Z" fill="#66D47A"/>
<path fill-rule="evenodd" clip-rule="evenodd" d="M38.3809 17.3523L48.4033 16.0322V26.8857L38.3809 28.2058V17.3523Z" fill="#F7CE7F"/>
<path fill-rule="evenodd" clip-rule="evenodd" d="M116.409 19.455L69.2305 13.3438V24.1973L116.409 30.3085V19.455Z" fill="#40AA54"/>
<path fill-rule="evenodd" clip-rule="evenodd" d="M100.08 17.3523L90.0576 16.0322V26.8857L100.08 28.2058V17.3523Z" fill="#F7CE7F"/>
</svg>
