<svg width="129" height="134" viewBox="0 0 129 134" fill="none" xmlns="http://www.w3.org/2000/svg">
<path fill-rule="evenodd" clip-rule="evenodd" d="M128.924 43.6769H79.3149V0H49.6093V43.6769H0V75.262H9.6736L21.359 134H107.565L119.251 75.262H128.924V43.6769ZM120.364 52.2831V66.6556H79.3151V52.2831H120.364ZM70.7572 8.60698H58.1729V66.6564H70.7572V8.60698ZM49.6092 52.2831V66.6556H8.56058V52.2831H49.6092ZM28.3792 125.437H100.546L110.519 75.262H18.406L28.3792 125.437Z" fill="#40AA54"/>
<path d="M39.5908 91.3633H47.712V107.606H39.5908V91.3633Z" fill="#40AA54"/>
<path d="M59.8955 91.3633H68.0167V107.606H59.8955V91.3633Z" fill="#40AA54"/>
<path d="M81.2109 91.3633H89.3321V107.606H81.2109V91.3633Z" fill="#40AA54"/>
</svg>
