<svg width="15" height="11" viewBox="0 0 15 11" fill="none" xmlns="http://www.w3.org/2000/svg">
<path d="M6.00772 5.5C6.00772 4.67157 6.67586 4 7.50006 4C8.32425 4 8.99239 4.67157 8.99239 5.5C8.99239 6.32843 8.32425 7 7.50006 7C6.67586 7 6.00772 6.32843 6.00772 5.5Z" fill="#16162E"/>
<path fill-rule="evenodd" clip-rule="evenodd" d="M14.4643 5.49998C14.9261 5.3143 14.926 5.31409 14.9259 5.31385L14.9251 5.31182L14.9234 5.30752L14.9176 5.29356C14.9128 5.28192 14.906 5.26564 14.8971 5.24504C14.8793 5.20385 14.8534 5.14533 14.819 5.07195C14.7502 4.92526 14.6473 4.71871 14.5084 4.47224C14.231 3.98029 13.8067 3.32375 13.2173 2.66552C12.0378 1.34827 10.1722 0 7.49998 0C4.82772 0 2.96217 1.34827 1.78271 2.66552C1.19332 3.32375 0.768948 3.98029 0.491602 4.47224C0.352649 4.71872 0.249825 4.92526 0.181025 5.07195C0.146607 5.14533 0.120648 5.20386 0.102891 5.24505C0.0940104 5.26564 0.087176 5.28192 0.0823558 5.29356L0.07663 5.30752L0.0748912 5.31182L0.0743015 5.31329C0.0742083 5.31353 0.0738976 5.31431 0.535764 5.5L0.0738976 5.31431L0 5.5L0.0738976 5.68569L0.535764 5.5C0.0738976 5.68569 0.0738044 5.68546 0.0738976 5.68569L0.0743015 5.68671L0.0748912 5.68818L0.07663 5.69248L0.0823558 5.70644C0.087176 5.71808 0.0940104 5.73436 0.102891 5.75495C0.120648 5.79614 0.146607 5.85467 0.181025 5.92805C0.249825 6.07474 0.352649 6.28128 0.491602 6.52776C0.768948 7.01971 1.19332 7.67625 1.78271 8.33448C2.96217 9.65173 4.82772 11 7.49998 11C10.1722 11 12.0378 9.65173 13.2173 8.33448C13.8067 7.67625 14.231 7.01971 14.5084 6.52776C14.6473 6.28129 14.7502 6.07474 14.819 5.92805C14.8534 5.85467 14.8793 5.79615 14.8971 5.75496C14.906 5.73436 14.9128 5.71808 14.9176 5.70644L14.9234 5.69248L14.9251 5.68818L14.9257 5.68671C14.9258 5.68647 14.9261 5.68566 14.4643 5.49998L14.9261 5.6857L15 5.5L14.9259 5.31385L14.4643 5.49998ZM7.50006 3C6.1264 3 5.01283 4.11929 5.01283 5.5C5.01283 6.88071 6.1264 8 7.50006 8C8.87371 8 9.98728 6.88071 9.98728 5.5C9.98728 4.11929 8.87371 3 7.50006 3Z" fill="#16162E"/>
</svg>
