<svg width="100" height="100" viewBox="0 0 100 100" fill="none" xmlns="http://www.w3.org/2000/svg">
<path d="M78.3333 1.66701H35C37.6274 1.6635 40.2297 2.17842 42.6578 3.18227C45.0859 4.18612 47.2921 5.65918 49.15 7.51705C51.0078 9.37492 52.4809 11.5811 53.4847 14.0092C54.4886 16.4373 55.0035 19.0396 55 21.667V51.667H98.3333V21.667C98.3333 16.3627 96.2262 11.2756 92.4755 7.52487C88.7247 3.77415 83.6377 1.66701 78.3333 1.66701Z" fill="#40AA54"/>
<path d="M1.66699 21.8418V51.4835L18.2437 36.6735L1.66699 21.8418Z" fill="#40AA54"/>
<path d="M45.0003 51.4837L28.4237 36.667L25.557 39.2337C24.9457 39.7809 24.1541 40.0835 23.3337 40.0835C22.5132 40.0835 21.7216 39.7809 21.1103 39.2337L18.2437 36.667L1.66699 51.4837V51.667H45.0003V51.4837Z" fill="#40AA54"/>
<path d="M45.0005 51.4835V21.8418L28.4238 36.6735L45.0005 51.4835Z" fill="#40AA54"/>
<path d="M18.2503 36.667L21.117 39.2337C21.7283 39.7809 22.5199 40.0835 23.3403 40.0835C24.1608 40.0835 24.9524 39.7809 25.5637 39.2337L28.4237 36.667L45.0003 21.842V21.667H1.66699V21.842L18.2437 36.667H18.2503Z" fill="#40AA54"/>
<path d="M55.001 51.667L50.001 61.667V98.3337H66.6676V51.667H55.001Z" fill="#40AA54"/>
<path d="M78.3333 0H33.3333C33.1322 0.00305074 32.9333 0.0431659 32.7467 0.118333C27.7104 0.653815 23.0203 2.93511 19.4899 6.56657C15.9595 10.198 13.8115 14.9506 13.4183 20H1.66667C1.22464 20 0.800716 20.1756 0.488155 20.4882C0.175595 20.8007 0 21.2246 0 21.6667V51.6667C0 52.1087 0.175595 52.5326 0.488155 52.8452C0.800716 53.1577 1.22464 53.3333 1.66667 53.3333H12.3033L9.255 59.43C8.87373 60.1923 8.69365 61.0394 8.73187 61.8909C8.77008 62.7423 9.02533 63.5699 9.47336 64.295C9.92139 65.02 10.5473 65.6185 11.2918 66.0336C12.0362 66.4487 12.8743 66.6666 13.7267 66.6667H46.2733C46.9835 66.6668 47.6856 66.5162 48.3333 66.225V98.3333C48.3333 98.7754 48.5089 99.1993 48.8215 99.5118C49.134 99.8244 49.558 100 50 100H66.6667C67.1087 100 67.5326 99.8244 67.8452 99.5118C68.1577 99.1993 68.3333 98.7754 68.3333 98.3333V53.3333H98.3333C98.7754 53.3333 99.1993 53.1577 99.5118 52.8452C99.8244 52.5326 100 52.1087 100 51.6667V21.6667C99.9934 15.9223 97.7085 10.4152 93.6467 6.35333C89.5848 2.29147 84.0777 0.00661662 78.3333 0V0ZM35 3.33333C37.4086 3.32982 39.7941 3.80163 42.02 4.72172C44.2459 5.64182 46.2683 6.99211 47.9715 8.69521C49.6746 10.3983 51.0248 12.4208 51.9449 14.6467C52.865 16.8725 53.3368 19.2581 53.3333 21.6667V50H46.6667V21.6667C46.6667 21.2246 46.4911 20.8007 46.1785 20.4882C45.866 20.1756 45.442 20 45 20H16.7517C17.171 15.4482 19.2741 11.2167 22.6494 8.13401C26.0246 5.05132 30.4289 3.33939 35 3.33333V3.33333ZM5.83333 50L18.2467 38.9083L20 40.4817C20.9167 41.3016 22.1034 41.7549 23.3333 41.7549C24.5632 41.7549 25.75 41.3016 26.6667 40.4817L28.4233 38.9083L40.8333 50H5.83333ZM30.93 36.6667L43.3333 25.57V47.76L30.93 36.6667ZM24.45 37.99C24.1444 38.2636 23.7486 38.4149 23.3383 38.4149C22.9281 38.4149 22.5323 38.2636 22.2267 37.99L5.83333 23.3333H40.8333L24.45 37.99ZM15.7417 36.6667L3.33333 47.76V25.57L15.7417 36.6667ZM46.2733 63.3333H13.7267C13.4427 63.3332 13.1634 63.2605 12.9155 63.1221C12.6675 62.9837 12.4589 62.7843 12.3097 62.5427C12.1604 62.3011 12.0754 62.0254 12.0626 61.7417C12.0498 61.458 12.1097 61.1757 12.2367 60.9217L16.03 53.3333H52.3033L47.7633 62.4117C47.625 62.6885 47.4124 62.9213 47.1492 63.0841C46.886 63.2469 46.5828 63.3332 46.2733 63.3333V63.3333ZM65 96.6667H51.6667V62.06L56.03 53.3333H65V96.6667ZM96.6667 50H56.6667V21.6667C56.6793 18.0014 55.7557 14.3936 53.9835 11.1853C52.2113 7.97691 49.6492 5.27422 46.54 3.33333H78.3333C83.1939 3.33907 87.8537 5.27245 91.2906 8.70938C94.7275 12.1463 96.6609 16.8061 96.6667 21.6667V50Z" fill="#16162E"/>
</svg>
