<svg width="24" height="19" viewBox="0 0 24 19" fill="none" xmlns="http://www.w3.org/2000/svg">
<path d="M22.8489 9.1244L15.1146 1.15565C14.9131 0.948116 14.5868 0.948116 14.3854 1.15565C14.184 1.36319 14.184 1.69937 14.3854 1.90686L21.2396 8.96876H1.51564C1.23063 8.96876 1 9.20638 1 9.50003C1 9.79368 1.23063 10.0313 1.51564 10.0313H21.2396L14.3854 17.0932C14.184 17.3007 14.184 17.6369 14.3854 17.8444C14.4861 17.9481 14.6181 18 14.75 18C14.8819 18 15.0139 17.9481 15.1146 17.8444L22.849 9.87561C23.0504 9.66812 23.0504 9.33194 22.8489 9.1244Z" fill="white" stroke="white"/>
</svg>
