<svg width="21" height="26" viewBox="0 0 21 26" fill="none" xmlns="http://www.w3.org/2000/svg">
<path d="M0 17H20.8M2.4 17V9C2.4 4.58172 5.98172 1 10.4 1C14.8183 1 18.4 4.58172 18.4 9V17M7.2 19.4V20.2C7.2 21.9673 8.63269 23.4 10.4 23.4C12.1673 23.4 13.6 21.9673 13.6 20.2V19.4" stroke="#ffbb39" stroke-width="1.7"/>
<path d="M10.5 23H10L9.5 22.5H9.25M9 22.5H9.25M9 22.5H8.5M9 22.5L9.92328 23.9339M9.25 22.5L8.5 21.5V22.5M8.5 22.5H8V23M9 23H8M8 23V24L8.5 24.5L8.94694 24.0531L9 24H10.5L10 24.0531L9.92328 23.9339M8.5 24L9.92328 23.9339M7 23H7.5M7.5 23H9.5L7 23.5L5.5 21L7 20.5V21.5M7.5 23V21L7 21.5M7.5 23L8 21.5M7 21.5L6.5 22L7 22.5V21.5ZM7 21.5L6.5 21L5.5 20L6 19L7 19.5L6.5 20.5L8 20H6.5L5.5 22.5" stroke="white"/>
<path d="M6.5 19.5L10.5 24L11.2145 23.1962M13.5 22.5L14 21.5L13 20L14 20.5L15.5 21L14 22L12.5 20.5L13 19.5H14.5L11.2145 23.1962M13.5 22.5L13 23H12.5H12L11.5 22.5L12.5 22H13L13.5 22.5ZM13.5 22.5L12.692 23.308M12.5 23.5L12.692 23.308M12.692 23.308C12.5384 23.4616 12.1667 23.5 12 23.5L11.5 24V23.5L11.2145 23.1962M11 23H10.5" stroke="white"/>
<path d="M13.5 22.5V23.5L15.5 24L9.5 21.5H7.5H7V21L6 19.5" stroke="#ffbb39"/>
<path d="M7 20.5V21L8 22L8.5 22.5H9L9.5 21.5M7 19.5C9.8 19.9 9.5 20.6667 9 21L7 19.5Z" stroke="#ffbb39"/>
<path d="M7 19V19.8C7 21.5673 8.43269 23 10.2 23C11.9673 23 13.4 21.5673 13.4 19.8V19" stroke="#ffbb39" stroke-width="1.7"/>
</svg>
