<svg width="161" height="160" viewBox="0 0 161 160" fill="none" xmlns="http://www.w3.org/2000/svg">
<path d="M28.3161 135.133C35.1501 135.133 40.7268 140.677 40.7268 147.544C40.7268 154.378 35.1823 159.954 28.3161 159.954C21.4821 159.954 15.9053 154.41 15.9053 147.544C15.9053 140.677 21.4498 135.133 28.3161 135.133Z" fill="#2F2F57"/>
<path d="M28.3151 141.839C31.4742 141.839 34.0209 144.385 34.0209 147.545C34.0209 150.704 31.4742 153.25 28.3151 153.25C25.156 153.25 22.6094 150.704 22.6094 147.545C22.6094 144.385 25.156 141.839 28.3151 141.839Z" fill="#EE9849"/>
<path d="M127.217 135.133C134.051 135.133 139.628 140.677 139.628 147.544C139.628 154.378 134.084 159.954 127.217 159.954C120.383 159.954 114.807 154.41 114.807 147.544C114.807 140.677 120.351 135.133 127.217 135.133Z" fill="#2F2F57"/>
<path d="M127.213 141.839C130.372 141.839 132.918 144.385 132.918 147.545C132.918 150.704 130.372 153.25 127.213 153.25C124.053 153.25 121.507 150.704 121.507 147.545C121.507 144.385 124.053 141.839 127.213 141.839Z" fill="#EE9849"/>
<mask id="path-5-outside-1_345_5502" maskUnits="userSpaceOnUse" x="2.11426" y="0.532227" width="159" height="100" fill="black">
<rect fill="white" x="2.11426" y="0.532227" width="159" height="100"/>
<path d="M3.62302 3.12624C4.33221 2.38481 5.4927 2.32034 6.26636 3.02953L22.1264 17.7613C22.352 17.9869 22.5454 18.2448 22.6421 18.5672L24.673 24.9176L157.871 31.2359C158.355 31.2681 158.838 31.4937 159.161 31.8483C159.483 32.2029 159.677 32.6865 159.644 33.2022L156.904 89.2603C156.872 90.1952 156.131 90.9688 155.196 91.0333L45.7875 98.8988C45.7552 98.8988 45.6908 98.8988 45.6585 98.8988C44.8526 98.8988 44.1434 98.383 43.8855 97.6094L21.4817 27.3031C21.4817 27.2709 21.4494 27.2386 21.4494 27.2064L19.1929 20.1467L3.71973 5.76957C2.94607 5.06038 2.91384 3.86766 3.62302 3.12624ZM40.8231 75.7857L53.0405 75.3022L47.915 54.6713L34.0536 54.5423L40.8231 75.7857ZM56.3608 75.2055L70.1255 74.6897L65.4835 54.8325L51.2998 54.7035L56.3608 75.2055ZM74.4451 93.0964L70.8669 77.8488L57.1345 78.3646L61.035 94.0312L74.4451 93.0964ZM90.3373 91.9359L87.5973 77.2041L74.155 77.7199L77.7009 92.8385L90.3373 91.9359ZM107.874 90.6787L105.746 76.5272L90.8854 77.1074L93.5932 91.7102L107.874 90.6787ZM122.509 89.6149L121.477 75.9147L108.97 76.3982L111.097 90.4208L122.509 89.6149ZM140.238 88.3255L139.4 75.2377L124.701 75.7857L125.732 89.357L140.238 88.3255ZM154.777 55.5739L141.334 55.445L142.398 71.8852L154.003 71.4339L154.777 55.5739ZM138.111 55.445L123.153 55.316L124.443 72.5944L139.175 72.0142L138.111 55.445ZM121.477 33.2022L122.896 52.0924L137.885 52.2214L136.692 33.9437L121.477 33.2022ZM102.297 32.2996L105.263 51.9313L119.64 52.0602L118.221 33.0411L102.297 32.2996ZM82.3751 31.3648L86.1789 51.8023L102.039 51.9313L99.041 32.1707L82.3751 31.3648ZM63.0659 30.43L68.0302 51.6089L82.8909 51.7378L79.0871 31.1714L63.0659 30.43ZM102.49 55.1548L86.7592 55.0259L90.2729 73.9161L105.263 73.3358L102.49 55.1548ZM108.486 73.2069L121.219 72.7233L119.898 55.2838L105.746 55.1548L108.486 73.2069ZM83.4711 54.9937L68.7716 54.8647L73.3813 74.5608L86.9848 74.045L83.4711 54.9937ZM64.7099 51.6089L59.7133 30.301L45.046 29.5918L50.4617 51.4799L64.7099 51.6089ZM139.948 34.0726L141.141 52.2214L154.97 52.3503L155.808 34.814L139.948 34.0726ZM153.874 74.6897L142.624 75.1088L143.462 88.0676L153.262 87.3584L153.874 74.6897ZM46.9802 95.095L57.7792 94.3213L53.8787 78.5258L41.8547 78.9771L46.9802 95.095ZM33.0543 51.3188L47.1414 51.4477L41.6935 29.4307L25.8335 28.6892L33.0543 51.3188Z"/>
</mask>
<path d="M3.62302 3.12624C4.33221 2.38481 5.4927 2.32034 6.26636 3.02953L22.1264 17.7613C22.352 17.9869 22.5454 18.2448 22.6421 18.5672L24.673 24.9176L157.871 31.2359C158.355 31.2681 158.838 31.4937 159.161 31.8483C159.483 32.2029 159.677 32.6865 159.644 33.2022L156.904 89.2603C156.872 90.1952 156.131 90.9688 155.196 91.0333L45.7875 98.8988C45.7552 98.8988 45.6908 98.8988 45.6585 98.8988C44.8526 98.8988 44.1434 98.383 43.8855 97.6094L21.4817 27.3031C21.4817 27.2709 21.4494 27.2386 21.4494 27.2064L19.1929 20.1467L3.71973 5.76957C2.94607 5.06038 2.91384 3.86766 3.62302 3.12624ZM40.8231 75.7857L53.0405 75.3022L47.915 54.6713L34.0536 54.5423L40.8231 75.7857ZM56.3608 75.2055L70.1255 74.6897L65.4835 54.8325L51.2998 54.7035L56.3608 75.2055ZM74.4451 93.0964L70.8669 77.8488L57.1345 78.3646L61.035 94.0312L74.4451 93.0964ZM90.3373 91.9359L87.5973 77.2041L74.155 77.7199L77.7009 92.8385L90.3373 91.9359ZM107.874 90.6787L105.746 76.5272L90.8854 77.1074L93.5932 91.7102L107.874 90.6787ZM122.509 89.6149L121.477 75.9147L108.97 76.3982L111.097 90.4208L122.509 89.6149ZM140.238 88.3255L139.4 75.2377L124.701 75.7857L125.732 89.357L140.238 88.3255ZM154.777 55.5739L141.334 55.445L142.398 71.8852L154.003 71.4339L154.777 55.5739ZM138.111 55.445L123.153 55.316L124.443 72.5944L139.175 72.0142L138.111 55.445ZM121.477 33.2022L122.896 52.0924L137.885 52.2214L136.692 33.9437L121.477 33.2022ZM102.297 32.2996L105.263 51.9313L119.64 52.0602L118.221 33.0411L102.297 32.2996ZM82.3751 31.3648L86.1789 51.8023L102.039 51.9313L99.041 32.1707L82.3751 31.3648ZM63.0659 30.43L68.0302 51.6089L82.8909 51.7378L79.0871 31.1714L63.0659 30.43ZM102.49 55.1548L86.7592 55.0259L90.2729 73.9161L105.263 73.3358L102.49 55.1548ZM108.486 73.2069L121.219 72.7233L119.898 55.2838L105.746 55.1548L108.486 73.2069ZM83.4711 54.9937L68.7716 54.8647L73.3813 74.5608L86.9848 74.045L83.4711 54.9937ZM64.7099 51.6089L59.7133 30.301L45.046 29.5918L50.4617 51.4799L64.7099 51.6089ZM139.948 34.0726L141.141 52.2214L154.97 52.3503L155.808 34.814L139.948 34.0726ZM153.874 74.6897L142.624 75.1088L143.462 88.0676L153.262 87.3584L153.874 74.6897ZM46.9802 95.095L57.7792 94.3213L53.8787 78.5258L41.8547 78.9771L46.9802 95.095ZM33.0543 51.3188L47.1414 51.4477L41.6935 29.4307L25.8335 28.6892L33.0543 51.3188Z" fill="#16162E"/>
<path d="M3.62302 3.12624C4.33221 2.38481 5.4927 2.32034 6.26636 3.02953L22.1264 17.7613C22.352 17.9869 22.5454 18.2448 22.6421 18.5672L24.673 24.9176L157.871 31.2359C158.355 31.2681 158.838 31.4937 159.161 31.8483C159.483 32.2029 159.677 32.6865 159.644 33.2022L156.904 89.2603C156.872 90.1952 156.131 90.9688 155.196 91.0333L45.7875 98.8988C45.7552 98.8988 45.6908 98.8988 45.6585 98.8988C44.8526 98.8988 44.1434 98.383 43.8855 97.6094L21.4817 27.3031C21.4817 27.2709 21.4494 27.2386 21.4494 27.2064L19.1929 20.1467L3.71973 5.76957C2.94607 5.06038 2.91384 3.86766 3.62302 3.12624ZM40.8231 75.7857L53.0405 75.3022L47.915 54.6713L34.0536 54.5423L40.8231 75.7857ZM56.3608 75.2055L70.1255 74.6897L65.4835 54.8325L51.2998 54.7035L56.3608 75.2055ZM74.4451 93.0964L70.8669 77.8488L57.1345 78.3646L61.035 94.0312L74.4451 93.0964ZM90.3373 91.9359L87.5973 77.2041L74.155 77.7199L77.7009 92.8385L90.3373 91.9359ZM107.874 90.6787L105.746 76.5272L90.8854 77.1074L93.5932 91.7102L107.874 90.6787ZM122.509 89.6149L121.477 75.9147L108.97 76.3982L111.097 90.4208L122.509 89.6149ZM140.238 88.3255L139.4 75.2377L124.701 75.7857L125.732 89.357L140.238 88.3255ZM154.777 55.5739L141.334 55.445L142.398 71.8852L154.003 71.4339L154.777 55.5739ZM138.111 55.445L123.153 55.316L124.443 72.5944L139.175 72.0142L138.111 55.445ZM121.477 33.2022L122.896 52.0924L137.885 52.2214L136.692 33.9437L121.477 33.2022ZM102.297 32.2996L105.263 51.9313L119.64 52.0602L118.221 33.0411L102.297 32.2996ZM82.3751 31.3648L86.1789 51.8023L102.039 51.9313L99.041 32.1707L82.3751 31.3648ZM63.0659 30.43L68.0302 51.6089L82.8909 51.7378L79.0871 31.1714L63.0659 30.43ZM102.49 55.1548L86.7592 55.0259L90.2729 73.9161L105.263 73.3358L102.49 55.1548ZM108.486 73.2069L121.219 72.7233L119.898 55.2838L105.746 55.1548L108.486 73.2069ZM83.4711 54.9937L68.7716 54.8647L73.3813 74.5608L86.9848 74.045L83.4711 54.9937ZM64.7099 51.6089L59.7133 30.301L45.046 29.5918L50.4617 51.4799L64.7099 51.6089ZM139.948 34.0726L141.141 52.2214L154.97 52.3503L155.808 34.814L139.948 34.0726ZM153.874 74.6897L142.624 75.1088L143.462 88.0676L153.262 87.3584L153.874 74.6897ZM46.9802 95.095L57.7792 94.3213L53.8787 78.5258L41.8547 78.9771L46.9802 95.095ZM33.0543 51.3188L47.1414 51.4477L41.6935 29.4307L25.8335 28.6892L33.0543 51.3188Z" stroke="black" stroke-width="2" mask="url(#path-5-outside-1_345_5502)"/>
<path d="M10.3593 11.6377C10.9718 11.6377 11.5843 11.3798 12.0356 10.8963C12.8415 9.96145 12.777 8.57531 11.8422 7.73718L3.71876 0.548591C2.78392 -0.257305 1.39778 -0.160597 0.559649 0.742005C-0.246246 1.67684 -0.181774 3.06298 0.753064 3.90111L8.87649 11.0575C9.29555 11.4443 9.84356 11.6377 10.3593 11.6377Z" fill="#EE9849"/>
<path d="M155.032 91.3573C156.225 91.3573 157.192 90.4225 157.256 89.2298L159.996 33.1717C160.061 31.9467 159.094 30.8829 157.869 30.8185C156.644 30.754 155.58 31.7211 155.516 32.946L152.776 89.0041C152.711 90.2291 153.678 91.2929 154.903 91.3573C154.935 91.3573 155 91.3573 155.032 91.3573Z" fill="#EE9849"/>
<path d="M126.371 133.885L125.812 147.202L125.812 147.206C125.79 147.858 126.107 148.422 126.601 148.678C126.849 148.807 127.142 148.856 127.435 148.782C127.731 148.708 127.984 148.521 128.173 148.25L138.014 134.123L139.882 134.15L155.36 140.207C155.661 140.335 155.954 140.373 156.226 140.373C157.167 140.373 158.065 139.802 158.433 138.863L158.433 138.863L158.437 138.853C158.881 137.64 158.315 136.289 157.089 135.799L157.085 135.797L143.225 130.397L146.348 121.639C146.348 121.638 146.349 121.637 146.349 121.636C146.8 120.401 146.138 119.058 144.923 118.612C143.687 118.159 142.342 118.821 141.896 120.037L141.894 120.042L138.565 129.406L32.8442 127.487V110.518L47.1006 98.8388C48.1322 98.0114 48.2407 96.5351 47.4341 95.5269C46.607 94.493 45.1292 94.3838 44.1202 95.1909L44.1202 95.1909L44.1153 95.1949L28.9968 107.606L28.9967 107.606L28.991 107.61C28.4615 108.059 28.137 108.745 28.137 109.443V129.784C28.137 130.849 28.8388 131.783 29.835 132.066L27.4351 146.59C27.3335 147.159 27.6087 147.657 28.0334 147.891C28.4718 148.132 29.0535 148.077 29.4421 147.605L29.4434 147.604L41.8941 132.351L126.371 133.885Z" fill="#16162E" stroke="black"/>
</svg>
