<svg width="126" height="150" viewBox="0 0 126 150" fill="none" xmlns="http://www.w3.org/2000/svg">
<path d="M22.1279 130.604C27.4683 130.604 31.8262 134.937 31.8262 140.303C31.8262 145.643 27.4935 150.001 22.1279 150.001C16.7876 150.001 12.4297 145.668 12.4297 140.303C12.4297 134.937 16.7624 130.604 22.1279 130.604Z" fill="#2F2F57"/>
<path d="M22.1266 135.844C24.5953 135.844 26.5853 137.834 26.5853 140.302C26.5853 142.771 24.5953 144.761 22.1266 144.761C19.658 144.761 17.668 142.771 17.668 140.302C17.668 137.834 19.658 135.844 22.1266 135.844Z" fill="#EE9849"/>
<path d="M99.4121 130.604C104.752 130.604 109.11 134.937 109.11 140.303C109.11 145.643 104.778 150.001 99.4121 150.001C94.0718 150.001 89.7139 145.668 89.7139 140.303C89.7139 134.937 94.0466 130.604 99.4121 130.604Z" fill="#2F2F57"/>
<path d="M99.4098 135.844C101.878 135.844 103.869 137.834 103.869 140.302C103.869 142.771 101.878 144.761 99.4098 144.761C96.9412 144.761 94.9512 142.771 94.9512 140.302C94.9512 137.834 96.9412 135.844 99.4098 135.844Z" fill="#EE9849"/>
<mask id="path-5-outside-1_572_10522" maskUnits="userSpaceOnUse" x="1.43359" y="24.9844" width="125" height="79" fill="black">
<rect fill="white" x="1.43359" y="24.9844" width="125" height="79"/>
<path d="M2.83116 27.4486C3.38535 26.8692 4.29219 26.8188 4.89676 27.373L17.2904 38.8849C17.4667 39.0613 17.6178 39.2628 17.6934 39.5147L19.2804 44.4772L123.366 49.4144C123.744 49.4396 124.122 49.616 124.374 49.8931C124.626 50.1702 124.777 50.548 124.752 50.951L122.611 94.7569C122.586 95.4874 122.006 96.0919 121.276 96.1423L35.78 102.289C35.7548 102.289 35.7044 102.289 35.6792 102.289C35.0495 102.289 34.4953 101.886 34.2938 101.281L16.7866 46.3412C16.7866 46.316 16.7614 46.2909 16.7614 46.2657L14.998 40.749L2.90673 29.5142C2.30217 28.96 2.27698 28.0279 2.83116 27.4486ZM31.9007 84.2274L41.4478 83.8495L37.4426 67.7277L26.6107 67.627L31.9007 84.2274ZM44.0424 83.7739L54.7986 83.3709L51.1712 67.8537L40.0875 67.7529L44.0424 83.7739ZM58.1741 97.7545L55.378 85.8395L44.647 86.2426L47.695 98.485L58.1741 97.7545ZM70.5929 96.8477L68.4517 85.3357L57.9474 85.7388L60.7183 97.553L70.5929 96.8477ZM84.2964 95.8652L82.6338 84.8067L71.0211 85.2602L73.1371 96.6713L84.2964 95.8652ZM95.7328 95.034L94.9267 84.3281L85.1529 84.706L86.8154 95.6637L95.7328 95.034ZM109.587 94.0264L108.932 83.7991L97.4457 84.2274L98.2518 94.8324L109.587 94.0264ZM120.948 68.4331L110.444 68.3323L111.275 81.1793L120.344 80.8267L120.948 68.4331ZM107.925 68.3323L96.2366 68.2316L97.2442 81.7335L108.756 81.2801L107.925 68.3323ZM94.9267 50.951L96.035 65.7125L107.749 65.8133L106.816 51.5304L94.9267 50.951ZM79.9385 50.2457L82.256 65.5866L93.4908 65.6873L92.3825 50.8251L79.9385 50.2457ZM64.3709 49.5152L67.3434 65.4858L79.737 65.5866L77.3943 50.145L64.3709 49.5152ZM49.282 48.7847L53.1613 65.3347L64.774 65.4354L61.8015 49.3641L49.282 48.7847ZM80.0896 68.1056L67.7968 68.0048L70.5425 82.7663L82.256 82.3129L80.0896 68.1056ZM84.775 82.2121L94.7252 81.8343L93.6923 68.2064L82.6338 68.1056L84.775 82.2121ZM65.2274 67.9796L53.7406 67.8789L57.3428 83.2701L67.9731 82.8671L65.2274 67.9796ZM50.5667 65.3347L46.6622 48.6839L35.2006 48.1297L39.4326 65.2339L50.5667 65.3347ZM109.361 51.6312L110.293 65.8133L121.099 65.914L121.754 52.2106L109.361 51.6312ZM120.243 83.3709L111.451 83.6984L112.106 93.8248L119.764 93.2706L120.243 83.3709ZM36.712 99.3163L45.1508 98.7117L42.1027 86.3685L32.7068 86.7212L36.712 99.3163ZM25.8298 65.108L36.838 65.2087L32.5808 48.0038L20.1872 47.4244L25.8298 65.108Z"/>
</mask>
<path d="M2.83116 27.4486C3.38535 26.8692 4.29219 26.8188 4.89676 27.373L17.2904 38.8849C17.4667 39.0613 17.6178 39.2628 17.6934 39.5147L19.2804 44.4772L123.366 49.4144C123.744 49.4396 124.122 49.616 124.374 49.8931C124.626 50.1702 124.777 50.548 124.752 50.951L122.611 94.7569C122.586 95.4874 122.006 96.0919 121.276 96.1423L35.78 102.289C35.7548 102.289 35.7044 102.289 35.6792 102.289C35.0495 102.289 34.4953 101.886 34.2938 101.281L16.7866 46.3412C16.7866 46.316 16.7614 46.2909 16.7614 46.2657L14.998 40.749L2.90673 29.5142C2.30217 28.96 2.27698 28.0279 2.83116 27.4486ZM31.9007 84.2274L41.4478 83.8495L37.4426 67.7277L26.6107 67.627L31.9007 84.2274ZM44.0424 83.7739L54.7986 83.3709L51.1712 67.8537L40.0875 67.7529L44.0424 83.7739ZM58.1741 97.7545L55.378 85.8395L44.647 86.2426L47.695 98.485L58.1741 97.7545ZM70.5929 96.8477L68.4517 85.3357L57.9474 85.7388L60.7183 97.553L70.5929 96.8477ZM84.2964 95.8652L82.6338 84.8067L71.0211 85.2602L73.1371 96.6713L84.2964 95.8652ZM95.7328 95.034L94.9267 84.3281L85.1529 84.706L86.8154 95.6637L95.7328 95.034ZM109.587 94.0264L108.932 83.7991L97.4457 84.2274L98.2518 94.8324L109.587 94.0264ZM120.948 68.4331L110.444 68.3323L111.275 81.1793L120.344 80.8267L120.948 68.4331ZM107.925 68.3323L96.2366 68.2316L97.2442 81.7335L108.756 81.2801L107.925 68.3323ZM94.9267 50.951L96.035 65.7125L107.749 65.8133L106.816 51.5304L94.9267 50.951ZM79.9385 50.2457L82.256 65.5866L93.4908 65.6873L92.3825 50.8251L79.9385 50.2457ZM64.3709 49.5152L67.3434 65.4858L79.737 65.5866L77.3943 50.145L64.3709 49.5152ZM49.282 48.7847L53.1613 65.3347L64.774 65.4354L61.8015 49.3641L49.282 48.7847ZM80.0896 68.1056L67.7968 68.0048L70.5425 82.7663L82.256 82.3129L80.0896 68.1056ZM84.775 82.2121L94.7252 81.8343L93.6923 68.2064L82.6338 68.1056L84.775 82.2121ZM65.2274 67.9796L53.7406 67.8789L57.3428 83.2701L67.9731 82.8671L65.2274 67.9796ZM50.5667 65.3347L46.6622 48.6839L35.2006 48.1297L39.4326 65.2339L50.5667 65.3347ZM109.361 51.6312L110.293 65.8133L121.099 65.914L121.754 52.2106L109.361 51.6312ZM120.243 83.3709L111.451 83.6984L112.106 93.8248L119.764 93.2706L120.243 83.3709ZM36.712 99.3163L45.1508 98.7117L42.1027 86.3685L32.7068 86.7212L36.712 99.3163ZM25.8298 65.108L36.838 65.2087L32.5808 48.0038L20.1872 47.4244L25.8298 65.108Z" fill="#16162E"/>
<path d="M2.83116 27.4486C3.38535 26.8692 4.29219 26.8188 4.89676 27.373L17.2904 38.8849C17.4667 39.0613 17.6178 39.2628 17.6934 39.5147L19.2804 44.4772L123.366 49.4144C123.744 49.4396 124.122 49.616 124.374 49.8931C124.626 50.1702 124.777 50.548 124.752 50.951L122.611 94.7569C122.586 95.4874 122.006 96.0919 121.276 96.1423L35.78 102.289C35.7548 102.289 35.7044 102.289 35.6792 102.289C35.0495 102.289 34.4953 101.886 34.2938 101.281L16.7866 46.3412C16.7866 46.316 16.7614 46.2909 16.7614 46.2657L14.998 40.749L2.90673 29.5142C2.30217 28.96 2.27698 28.0279 2.83116 27.4486ZM31.9007 84.2274L41.4478 83.8495L37.4426 67.7277L26.6107 67.627L31.9007 84.2274ZM44.0424 83.7739L54.7986 83.3709L51.1712 67.8537L40.0875 67.7529L44.0424 83.7739ZM58.1741 97.7545L55.378 85.8395L44.647 86.2426L47.695 98.485L58.1741 97.7545ZM70.5929 96.8477L68.4517 85.3357L57.9474 85.7388L60.7183 97.553L70.5929 96.8477ZM84.2964 95.8652L82.6338 84.8067L71.0211 85.2602L73.1371 96.6713L84.2964 95.8652ZM95.7328 95.034L94.9267 84.3281L85.1529 84.706L86.8154 95.6637L95.7328 95.034ZM109.587 94.0264L108.932 83.7991L97.4457 84.2274L98.2518 94.8324L109.587 94.0264ZM120.948 68.4331L110.444 68.3323L111.275 81.1793L120.344 80.8267L120.948 68.4331ZM107.925 68.3323L96.2366 68.2316L97.2442 81.7335L108.756 81.2801L107.925 68.3323ZM94.9267 50.951L96.035 65.7125L107.749 65.8133L106.816 51.5304L94.9267 50.951ZM79.9385 50.2457L82.256 65.5866L93.4908 65.6873L92.3825 50.8251L79.9385 50.2457ZM64.3709 49.5152L67.3434 65.4858L79.737 65.5866L77.3943 50.145L64.3709 49.5152ZM49.282 48.7847L53.1613 65.3347L64.774 65.4354L61.8015 49.3641L49.282 48.7847ZM80.0896 68.1056L67.7968 68.0048L70.5425 82.7663L82.256 82.3129L80.0896 68.1056ZM84.775 82.2121L94.7252 81.8343L93.6923 68.2064L82.6338 68.1056L84.775 82.2121ZM65.2274 67.9796L53.7406 67.8789L57.3428 83.2701L67.9731 82.8671L65.2274 67.9796ZM50.5667 65.3347L46.6622 48.6839L35.2006 48.1297L39.4326 65.2339L50.5667 65.3347ZM109.361 51.6312L110.293 65.8133L121.099 65.914L121.754 52.2106L109.361 51.6312ZM120.243 83.3709L111.451 83.6984L112.106 93.8248L119.764 93.2706L120.243 83.3709ZM36.712 99.3163L45.1508 98.7117L42.1027 86.3685L32.7068 86.7212L36.712 99.3163ZM25.8298 65.108L36.838 65.2087L32.5808 48.0038L20.1872 47.4244L25.8298 65.108Z" stroke="black" stroke-width="2" mask="url(#path-5-outside-1_572_10522)"/>
<path d="M8.09516 34.1C8.57378 34.1 9.05239 33.8985 9.40505 33.5206C10.0348 32.7901 9.98443 31.7069 9.25391 31.052L2.90597 25.4345C2.17546 24.8048 1.09228 24.8804 0.437331 25.5857C-0.192425 26.3162 -0.142045 27.3994 0.588472 28.0543L6.93641 33.6466C7.26389 33.9488 7.69212 34.1 8.09516 34.1Z" fill="#EE9849"/>
<path d="M121.148 96.3956C122.08 96.3956 122.835 95.6651 122.886 94.733L125.027 50.9272C125.077 49.97 124.322 49.1387 123.364 49.0883C122.407 49.0379 121.576 49.7936 121.525 50.7509L119.384 94.5567C119.334 95.5139 120.09 96.3452 121.047 96.3956C121.072 96.3956 121.122 96.3956 121.148 96.3956Z" fill="#EE9849"/>
<path d="M98.6363 129.736L98.2043 140.031L98.2042 140.035C98.186 140.581 98.4521 141.063 98.8794 141.286C99.0944 141.397 99.3507 141.441 99.6084 141.376C99.8684 141.311 100.088 141.146 100.248 140.917L107.905 129.925L109.287 129.945L121.362 134.67C121.613 134.776 121.857 134.808 122.08 134.808C122.859 134.808 123.602 134.335 123.906 133.558L123.906 133.558L123.91 133.548C124.277 132.547 123.81 131.429 122.795 131.023L122.791 131.021L112.059 126.84L114.464 120.097C114.464 120.096 114.464 120.095 114.465 120.094C114.839 119.07 114.289 117.959 113.285 117.591C112.26 117.215 111.148 117.765 110.779 118.77L110.778 118.775L108.203 126.018L25.7743 124.522V111.42L36.8743 102.327C37.7298 101.641 37.8172 100.418 37.1515 99.5861C36.4653 98.7283 35.2412 98.6402 34.4083 99.3064L34.4083 99.3064L34.4034 99.3104L22.5892 109.009L22.5892 109.009L22.5835 109.013C22.1456 109.384 21.8775 109.951 21.8775 110.529V126.424C21.8775 127.27 22.4142 128.019 23.1903 128.283L21.3305 139.538C21.2431 140.03 21.4812 140.465 21.8531 140.669C22.2386 140.881 22.7517 140.832 23.0909 140.42L23.0923 140.418L32.7881 128.54L98.6363 129.736Z" fill="#16162E" stroke="black"/>
<circle cx="92.2102" cy="17.1916" r="17.1916" fill="#E32B2B"/>
<path d="M84 9L100 25M84 25L100 9" stroke="white" stroke-width="2"/>
</svg>
