<svg width="126" height="150" viewBox="0 0 126 150" fill="none" xmlns="http://www.w3.org/2000/svg">
<path d="M62.4559 72.3145C62.4559 72.3145 62.9849 66.6215 60.8942 64.2536C58.7782 61.8858 55.1256 60.2736 53.1608 61.785C51.1959 63.2964 49.0296 69.871 49.1303 70.8786C49.2311 71.9114 62.4559 72.3145 62.4559 72.3145Z" fill="#D39D71"/>
<path d="M64.1175 70.8772L62.0015 97.478L44.6455 95.6895L47.2905 69.1895L64.1175 70.8772Z" fill="#FF7E21"/>
<path d="M74.1416 61.2815C74.1416 61.2815 62.3778 31.6075 51.8483 31.9601C51.8483 31.9601 47.2637 33.4212 52.0498 38.031C56.836 42.6408 74.1416 61.2815 74.1416 61.2815Z" fill="#A8D29F"/>
<path d="M73.5116 61.7849C73.5116 61.7849 54.2915 46.5448 50.0595 49.8195C50.0595 49.8195 47.6665 51.4065 50.4878 52.7668C53.3091 54.1271 64.4683 55.9156 73.5116 61.7849Z" fill="#A8D29F"/>
<path d="M75.0487 59.7944C74.9227 59.6181 67.8191 43.2192 70.6152 43.1437C73.4113 43.0933 75.0487 59.7944 75.0487 59.7944Z" fill="#A8D29F"/>
<path d="M88.675 71.2826C88.6247 71.0307 76.5837 55.8662 76.5837 55.8662C76.5837 55.8662 72.7296 55.8914 71.9488 58.1585C71.1679 60.4004 68.8252 59.7203 67.7168 60.8287L82.3523 77.8824L88.675 71.2826Z" fill="#FF7E21"/>
<path d="M38.7268 100.249L45.3014 99.3925C46.5106 99.2413 47.3922 98.1078 47.2159 96.8986L44.9488 79.5678C44.7976 78.3587 43.6641 77.477 42.4549 77.6533L35.8803 78.5098C34.6712 78.6609 33.7895 79.7945 33.9658 81.0036L36.233 98.3345C36.3841 99.5436 37.5177 100.4 38.7268 100.249Z" fill="#40AA54"/>
<path d="M38.4512 82.4904L41.0206 82.1629C41.4992 82.1126 41.8267 81.6591 41.7763 81.1805L40.8947 74.4044C40.8443 73.9258 40.3909 73.5983 39.9122 73.6487L37.3428 73.9761C36.8642 74.0265 36.5368 74.4799 36.5871 74.9586L37.4688 81.7347C37.5444 82.2133 37.9726 82.566 38.4512 82.4904Z" fill="#40AA54"/>
<path d="M37.4147 92.725L44.5586 91.792L43.1233 80.8014L35.9794 81.7344L37.4147 92.725Z" fill="#F1A34F"/>
<path d="M49.0289 98.7118L58.2233 98.2332C58.8278 98.208 59.2813 97.679 59.2561 97.0996L59.1049 94.2027C59.0797 93.5982 58.5508 93.1448 57.9714 93.1699L48.777 93.6486C48.1724 93.6737 47.719 94.2027 47.7442 94.7821L47.8953 97.679C47.9205 98.2836 48.4243 98.737 49.0289 98.7118Z" fill="#40AA54"/>
<path d="M51.6754 94.4293L55.1264 94.253C55.3531 94.253 55.5294 94.0515 55.5043 93.8248L55.4539 92.7416C55.4539 92.5149 55.2524 92.3385 55.0256 92.3637L51.5746 92.5401C51.3479 92.5401 51.1715 92.7416 51.1967 92.9683L51.2471 94.0515C51.2723 94.2782 51.4486 94.4545 51.6754 94.4293Z" fill="#40AA54"/>
<path d="M47.8722 97.2857L59.2422 96.6836L59.1276 94.5203L47.7576 95.1224L47.8722 97.2857Z" fill="#F1A34F"/>
<path d="M77.6518 85.8359L109.735 94.8574L122.439 49.6786L90.3556 40.6571L77.6518 85.8359Z" fill="#40AA54"/>
<path d="M64.768 97.423L83.9902 96.4932L82.8536 72.9938L63.6313 73.9236L64.768 97.423Z" fill="#40AA54"/>
<path d="M85.0634 95.9813L97.9453 95.3584L97.7263 90.8296L84.8444 91.4526L85.0634 95.9813Z" fill="#40AA54"/>
<path d="M22.1279 130.604C27.4682 130.604 31.8261 134.936 31.8261 140.302C31.8261 145.642 27.4934 150 22.1279 150C16.7876 150 12.4297 145.667 12.4297 140.302C12.4297 134.936 16.7624 130.604 22.1279 130.604Z" fill="#2F2F57"/>
<path d="M22.1266 135.844C24.5953 135.844 26.5853 137.834 26.5853 140.302C26.5853 142.771 24.5953 144.761 22.1266 144.761C19.658 144.761 17.668 142.771 17.668 140.302C17.668 137.834 19.658 135.844 22.1266 135.844Z" fill="#EE9849"/>
<path d="M99.4121 130.604C104.752 130.604 109.11 134.936 109.11 140.302C109.11 145.642 104.778 150 99.4121 150C94.0718 150 89.7139 145.667 89.7139 140.302C89.7139 134.936 94.0466 130.604 99.4121 130.604Z" fill="#2F2F57"/>
<path d="M99.4089 135.844C101.877 135.844 103.868 137.834 103.868 140.302C103.868 142.771 101.877 144.761 99.4089 144.761C96.9402 144.761 94.9502 142.771 94.9502 140.302C94.9502 137.834 96.9402 135.844 99.4089 135.844Z" fill="#EE9849"/>
<mask id="path-20-outside-1_572_10451" maskUnits="userSpaceOnUse" x="1.43457" y="24.9844" width="125" height="79" fill="black">
<rect fill="white" x="1.43457" y="24.9844" width="125" height="79"/>
<path d="M2.83214 27.4486C3.38632 26.8692 4.29317 26.8188 4.89773 27.373L17.2913 38.8849C17.4676 39.0612 17.6188 39.2628 17.6943 39.5147L19.2813 44.4771L123.367 49.4144C123.745 49.4396 124.123 49.6159 124.375 49.893C124.627 50.1701 124.778 50.548 124.753 50.951L122.611 94.7567C122.586 95.4872 122.007 96.0918 121.276 96.1422L35.7809 102.289C35.7557 102.289 35.7053 102.289 35.6801 102.289C35.0504 102.289 34.4962 101.886 34.2947 101.281L16.7875 46.3412C16.7875 46.316 16.7623 46.2908 16.7623 46.2656L14.999 40.749L2.90771 29.5141C2.30314 28.96 2.27795 28.0279 2.83214 27.4486ZM31.9016 84.2272L41.4487 83.8494L37.4435 67.7277L26.6117 67.6269L31.9016 84.2272ZM44.0433 83.7738L54.7995 83.3708L51.1721 67.8536L40.0884 67.7528L44.0433 83.7738ZM58.175 97.7544L55.3789 85.8394L44.6478 86.2424L47.6959 98.4849L58.175 97.7544ZM70.5937 96.8475L68.4526 85.3356L57.9483 85.7386L60.7192 97.5528L70.5937 96.8475ZM84.2972 95.8651L82.6347 84.8066L71.022 85.26L73.1379 96.6712L84.2972 95.8651ZM95.7335 95.0338L94.9275 84.328L85.1537 84.7058L86.8162 95.6636L95.7335 95.0338ZM109.588 94.0262L108.933 83.799L97.4465 84.2272L98.2526 94.8323L109.588 94.0262ZM120.949 68.433L110.445 68.3322L111.276 81.1792L120.344 80.8266L120.949 68.433ZM107.926 68.3322L96.2374 68.2315L97.245 81.7334L108.757 81.28L107.926 68.3322ZM94.9275 50.951L96.0358 65.7124L107.749 65.8132L106.817 51.5304L94.9275 50.951ZM79.9393 50.2457L82.2568 65.5865L93.4916 65.6873L92.3833 50.825L79.9393 50.2457ZM64.3718 49.5152L67.3442 65.4857L79.7378 65.5865L77.3951 50.1449L64.3718 49.5152ZM49.2828 48.7846L53.1621 65.3346L64.7748 65.4354L61.8024 49.364L49.2828 48.7846ZM80.0904 68.1055L67.7976 68.0047L70.5434 82.7662L82.2568 82.3128L80.0904 68.1055ZM84.7758 82.212L94.7259 81.8342L93.6931 68.2063L82.6347 68.1055L84.7758 82.212ZM65.2282 67.9796L53.7415 67.8788L57.3437 83.27L67.974 82.867L65.2282 67.9796ZM50.5675 65.3346L46.6631 48.6839L35.2015 48.1297L39.4335 65.2338L50.5675 65.3346ZM109.361 51.6311L110.293 65.8132L121.1 65.914L121.755 52.2105L109.361 51.6311ZM120.244 83.3708L111.452 83.6982L112.107 93.8247L119.765 93.2705L120.244 83.3708ZM36.7129 99.3161L45.1516 98.7116L42.1036 86.3684L32.7077 86.7211L36.7129 99.3161ZM25.8308 65.1079L36.8389 65.2086L32.5817 48.0037L20.1882 47.4244L25.8308 65.1079Z"/>
</mask>
<path d="M2.83214 27.4486C3.38632 26.8692 4.29317 26.8188 4.89773 27.373L17.2913 38.8849C17.4676 39.0612 17.6188 39.2628 17.6943 39.5147L19.2813 44.4771L123.367 49.4144C123.745 49.4396 124.123 49.6159 124.375 49.893C124.627 50.1701 124.778 50.548 124.753 50.951L122.611 94.7567C122.586 95.4872 122.007 96.0918 121.276 96.1422L35.7809 102.289C35.7557 102.289 35.7053 102.289 35.6801 102.289C35.0504 102.289 34.4962 101.886 34.2947 101.281L16.7875 46.3412C16.7875 46.316 16.7623 46.2908 16.7623 46.2656L14.999 40.749L2.90771 29.5141C2.30314 28.96 2.27795 28.0279 2.83214 27.4486ZM31.9016 84.2272L41.4487 83.8494L37.4435 67.7277L26.6117 67.6269L31.9016 84.2272ZM44.0433 83.7738L54.7995 83.3708L51.1721 67.8536L40.0884 67.7528L44.0433 83.7738ZM58.175 97.7544L55.3789 85.8394L44.6478 86.2424L47.6959 98.4849L58.175 97.7544ZM70.5937 96.8475L68.4526 85.3356L57.9483 85.7386L60.7192 97.5528L70.5937 96.8475ZM84.2972 95.8651L82.6347 84.8066L71.022 85.26L73.1379 96.6712L84.2972 95.8651ZM95.7335 95.0338L94.9275 84.328L85.1537 84.7058L86.8162 95.6636L95.7335 95.0338ZM109.588 94.0262L108.933 83.799L97.4465 84.2272L98.2526 94.8323L109.588 94.0262ZM120.949 68.433L110.445 68.3322L111.276 81.1792L120.344 80.8266L120.949 68.433ZM107.926 68.3322L96.2374 68.2315L97.245 81.7334L108.757 81.28L107.926 68.3322ZM94.9275 50.951L96.0358 65.7124L107.749 65.8132L106.817 51.5304L94.9275 50.951ZM79.9393 50.2457L82.2568 65.5865L93.4916 65.6873L92.3833 50.825L79.9393 50.2457ZM64.3718 49.5152L67.3442 65.4857L79.7378 65.5865L77.3951 50.1449L64.3718 49.5152ZM49.2828 48.7846L53.1621 65.3346L64.7748 65.4354L61.8024 49.364L49.2828 48.7846ZM80.0904 68.1055L67.7976 68.0047L70.5434 82.7662L82.2568 82.3128L80.0904 68.1055ZM84.7758 82.212L94.7259 81.8342L93.6931 68.2063L82.6347 68.1055L84.7758 82.212ZM65.2282 67.9796L53.7415 67.8788L57.3437 83.27L67.974 82.867L65.2282 67.9796ZM50.5675 65.3346L46.6631 48.6839L35.2015 48.1297L39.4335 65.2338L50.5675 65.3346ZM109.361 51.6311L110.293 65.8132L121.1 65.914L121.755 52.2105L109.361 51.6311ZM120.244 83.3708L111.452 83.6982L112.107 93.8247L119.765 93.2705L120.244 83.3708ZM36.7129 99.3161L45.1516 98.7116L42.1036 86.3684L32.7077 86.7211L36.7129 99.3161ZM25.8308 65.1079L36.8389 65.2086L32.5817 48.0037L20.1882 47.4244L25.8308 65.1079Z" fill="#16162E"/>
<path d="M2.83214 27.4486C3.38632 26.8692 4.29317 26.8188 4.89773 27.373L17.2913 38.8849C17.4676 39.0612 17.6188 39.2628 17.6943 39.5147L19.2813 44.4771L123.367 49.4144C123.745 49.4396 124.123 49.6159 124.375 49.893C124.627 50.1701 124.778 50.548 124.753 50.951L122.611 94.7567C122.586 95.4872 122.007 96.0918 121.276 96.1422L35.7809 102.289C35.7557 102.289 35.7053 102.289 35.6801 102.289C35.0504 102.289 34.4962 101.886 34.2947 101.281L16.7875 46.3412C16.7875 46.316 16.7623 46.2908 16.7623 46.2656L14.999 40.749L2.90771 29.5141C2.30314 28.96 2.27795 28.0279 2.83214 27.4486ZM31.9016 84.2272L41.4487 83.8494L37.4435 67.7277L26.6117 67.6269L31.9016 84.2272ZM44.0433 83.7738L54.7995 83.3708L51.1721 67.8536L40.0884 67.7528L44.0433 83.7738ZM58.175 97.7544L55.3789 85.8394L44.6478 86.2424L47.6959 98.4849L58.175 97.7544ZM70.5937 96.8475L68.4526 85.3356L57.9483 85.7386L60.7192 97.5528L70.5937 96.8475ZM84.2972 95.8651L82.6347 84.8066L71.022 85.26L73.1379 96.6712L84.2972 95.8651ZM95.7335 95.0338L94.9275 84.328L85.1537 84.7058L86.8162 95.6636L95.7335 95.0338ZM109.588 94.0262L108.933 83.799L97.4465 84.2272L98.2526 94.8323L109.588 94.0262ZM120.949 68.433L110.445 68.3322L111.276 81.1792L120.344 80.8266L120.949 68.433ZM107.926 68.3322L96.2374 68.2315L97.245 81.7334L108.757 81.28L107.926 68.3322ZM94.9275 50.951L96.0358 65.7124L107.749 65.8132L106.817 51.5304L94.9275 50.951ZM79.9393 50.2457L82.2568 65.5865L93.4916 65.6873L92.3833 50.825L79.9393 50.2457ZM64.3718 49.5152L67.3442 65.4857L79.7378 65.5865L77.3951 50.1449L64.3718 49.5152ZM49.2828 48.7846L53.1621 65.3346L64.7748 65.4354L61.8024 49.364L49.2828 48.7846ZM80.0904 68.1055L67.7976 68.0047L70.5434 82.7662L82.2568 82.3128L80.0904 68.1055ZM84.7758 82.212L94.7259 81.8342L93.6931 68.2063L82.6347 68.1055L84.7758 82.212ZM65.2282 67.9796L53.7415 67.8788L57.3437 83.27L67.974 82.867L65.2282 67.9796ZM50.5675 65.3346L46.6631 48.6839L35.2015 48.1297L39.4335 65.2338L50.5675 65.3346ZM109.361 51.6311L110.293 65.8132L121.1 65.914L121.755 52.2105L109.361 51.6311ZM120.244 83.3708L111.452 83.6982L112.107 93.8247L119.765 93.2705L120.244 83.3708ZM36.7129 99.3161L45.1516 98.7116L42.1036 86.3684L32.7077 86.7211L36.7129 99.3161ZM25.8308 65.1079L36.8389 65.2086L32.5817 48.0037L20.1882 47.4244L25.8308 65.1079Z" stroke="black" stroke-width="2" mask="url(#path-20-outside-1_572_10451)"/>
<path d="M8.09514 34.1C8.57376 34.1 9.05237 33.8984 9.40503 33.5206C10.0348 32.7901 9.98441 31.7069 9.25389 31.052L2.90597 25.4345C2.17545 24.8048 1.09227 24.8804 0.43733 25.5857C-0.192425 26.3162 -0.142045 27.3994 0.588471 28.0543L6.9364 33.6465C7.26387 33.9488 7.6921 34.1 8.09514 34.1Z" fill="#EE9849"/>
<path d="M121.147 96.3955C122.079 96.3955 122.834 95.665 122.885 94.7329L125.026 50.9272C125.076 49.97 124.321 49.1387 123.363 49.0883C122.406 49.0379 121.575 49.7936 121.524 50.7509L119.383 94.5566C119.333 95.5138 120.089 96.3451 121.046 96.3955C121.071 96.3955 121.121 96.3955 121.147 96.3955Z" fill="#EE9849"/>
<path d="M98.6371 129.736L98.2051 140.031L98.205 140.035C98.1868 140.581 98.4529 141.063 98.8802 141.286C99.0952 141.397 99.3515 141.441 99.6092 141.376C99.8692 141.311 100.089 141.146 100.249 140.916L107.906 129.925L109.288 129.945L121.363 134.67C121.614 134.776 121.858 134.808 122.081 134.808C122.86 134.808 123.603 134.335 123.907 133.558L123.907 133.558L123.911 133.548C124.278 132.546 123.81 131.428 122.796 131.023L122.792 131.021L112.06 126.839L114.465 120.097C114.465 120.096 114.465 120.095 114.466 120.094C114.839 119.07 114.29 117.959 113.286 117.591C112.261 117.215 111.149 117.765 110.78 118.77L110.778 118.775L108.203 126.018L25.7753 124.522V111.42L36.8753 102.327C37.7308 101.641 37.8181 100.418 37.1525 99.5861C36.4663 98.7283 35.2421 98.6402 34.4093 99.3064L34.4093 99.3064L34.4044 99.3104L22.5902 109.009L22.5902 109.009L22.5845 109.013C22.1465 109.384 21.8784 109.951 21.8784 110.529V126.424C21.8784 127.27 22.4152 128.019 23.1912 128.283L21.3315 139.538C21.2441 140.03 21.4822 140.465 21.8541 140.669C22.2396 140.881 22.7527 140.832 23.0919 140.42L23.0933 140.418L32.789 128.54L98.6371 129.736Z" fill="#16162E" stroke="black"/>
<circle cx="92.2091" cy="17.1916" r="17.1916" fill="#40AA54"/>
<path d="M101.705 10.4387C101.331 10.0647 100.725 10.0647 100.35 10.4387L88.8771 21.9122L84.4669 17.502C84.0929 17.128 83.4866 17.1281 83.1125 17.502C82.7385 17.876 82.7385 18.4823 83.1125 18.8564L88.1999 23.9436C88.5738 24.3176 89.1805 24.3174 89.5543 23.9436L101.705 11.7931C102.079 11.4191 102.079 10.8127 101.705 10.4387Z" fill="white"/>
</svg>
