<svg width="26" height="23" viewBox="0 0 26 23" fill="none" xmlns="http://www.w3.org/2000/svg">
<path d="M23.3995 7.59264V3.77106C23.3995 2.24313 22.1564 1 20.6284 1H3.77106C2.24308 0.999953 1 2.24303 1 3.77106V19.5615C1 21.0895 2.24308 22.3326 3.77106 22.3326H20.6284C22.1564 22.3326 23.3995 21.0895 23.3995 19.5615V15.7403C24.3326 15.3976 25 14.5002 25 13.4499V9.88309C25 8.83272 24.3325 7.93525 23.3995 7.59264ZM21.9683 19.5615C21.9683 20.3002 21.3672 20.9013 20.6284 20.9013H3.77106C3.03231 20.9013 2.43128 20.3002 2.43128 19.5615V3.77106C2.43128 3.03231 3.03231 2.43128 3.77106 2.43128H20.6284C21.3672 2.43128 21.9683 3.03231 21.9683 3.77106V7.44414H18.7491C16.4208 7.44414 14.5267 9.33831 14.5267 11.6665C14.5267 13.9947 16.4209 15.8889 18.7491 15.8889H21.9683V19.5615ZM23.5688 13.4498C23.5688 14.0055 23.1167 14.4576 22.561 14.4576H18.7492C17.2102 14.4576 15.9581 13.2055 15.9581 11.6665C15.9581 10.1275 17.2102 8.87533 18.7492 8.87533H22.561C23.1167 8.87533 23.5688 9.32739 23.5688 9.88305V13.4498Z" fill="#16162E" stroke="#16162E" stroke-width="0.4"/>
<path d="M20.0828 9.49609C18.8859 9.49609 17.9121 10.4699 17.9121 11.6668C17.9121 12.8637 18.8859 13.8375 20.0828 13.8375C21.2797 13.8375 22.2535 12.8637 22.2535 11.6668C22.2535 10.4699 21.2797 9.49609 20.0828 9.49609ZM20.0828 12.4062C19.6751 12.4062 19.3434 12.0745 19.3434 11.6668C19.3434 11.2591 19.6751 10.9273 20.0828 10.9273C20.4905 10.9273 20.8222 11.2591 20.8222 11.6668C20.8222 12.0745 20.4905 12.4062 20.0828 12.4062Z" fill="#40AA54"/>
</svg>
