<?xml version="1.0" encoding="utf-8"?>
<!-- Generator: Adobe Illustrator 24.0.1, SVG Export Plug-In . SVG Version: 6.00 Build 0)  -->
<svg version="1.1" xmlns="http://www.w3.org/2000/svg" xmlns:xlink="http://www.w3.org/1999/xlink" x="0px" y="0px"
	 viewBox="0 0 215.3 214.7" style="enable-background:new 0 0 215.3 214.7;" xml:space="preserve">
<style type="text/css">
	.st0{display:none;}
	.st1{display:inline;}
	.st2{fill:#F9F1E1;}
	.st3{fill:#EAF4FE;}
	.st4{fill:none;stroke:#0561FC;stroke-width:6.8376;stroke-miterlimit:10;}
	.st5{fill:#0561FC;}
	.st6{fill:#C5E1F9;}
	.st7{fill:#7EB3FF;}
	.st8{fill:#B5D5EA;}
	.st9{fill:#E1EBF4;}
	.st10{fill:#9AC7F7;}
	.st11{fill:none;stroke:#0561FC;stroke-width:6.8376;}
	.st12{fill:none;stroke:#7EB3FF;stroke-width:6.8376;}
	.st13{fill:none;stroke:#0561FC;stroke-width:6.8376;stroke-linecap:round;}
	.st14{fill:none;stroke:#0561FC;stroke-width:7.1001;}
	.st15{fill:#B6D9EF;}
	.st16{fill:none;stroke:#9AC7F7;stroke-width:6.8376;}
	.st17{fill:none;stroke:#0561FC;stroke-width:6.8376;stroke-linejoin:bevel;}
	.st18{fill:none;stroke:#0561FC;stroke-width:6.8376;stroke-linecap:round;stroke-linejoin:round;}
	.st19{fill:none;stroke:#0561FC;stroke-width:5.0237;}
	.st20{fill:none;stroke:#0450CF;stroke-width:6.8376;}
	.st21{fill:none;stroke:#C5E1F9;stroke-width:6.8376;}
	.st22{fill:#FFBF0D;}
	.st23{fill:#B2D2EA;}
	.st24{fill:none;stroke:#0561FC;stroke-width:6.9311;}
	.st25{fill:none;stroke:#0561FC;stroke-width:6.8376;stroke-linecap:round;stroke-miterlimit:10;}
	.st26{fill:#FFFFFF;}
	.st27{fill:#FFFFFF;stroke:#0561FC;stroke-width:6.8376;}
</style>
<g id="Layer_2">
	<g class="st0">
		<g class="st1">
			<rect x="5.5" y="-9.3" class="st2" width="218.8" height="218.8"/>
		</g>
	</g>
</g>
<g id="Layer_3">
</g>
<g id="Layer_4">
	<g>
		<polygon class="st10" points="188,112.2 170.9,125.8 170.9,112.2 160.6,112.2 160.6,84.8 215.3,84.8 215.3,112.2 		"/>
		<polygon class="st6" points="106,67.6 215.3,67.6 215.3,19.7 136.7,19.7 119.4,6.3 119.4,19.7 106,19.7 		"/>
		<path class="st11" d="M164.4,154.3c20.1,30.2-12.1,46.9-16.8,48.9c-12.4,5.2-26,8.1-40.2,8.1c-57.4,0-103.9-46.5-103.9-103.9
			C3.4,49.9,49.9,3.4,107.3,3.4"/>
		<path class="st11" d="M143,124.7c-0.2,0.1-0.3,0.3-0.4,0.4c-2.2,3.2-8.2,10.4-10.4,13.6c-2,3-6.9,3.6-10.7,0.9
			c-4.2-2.9-16.8-14.2-24.7-21.6c-7.4-7.8-18.8-20.6-21.7-24.8c-2.6-3.8-2.1-8.7,0.9-10.7c3.2-2.2,10.4-8.2,13.6-10.4
			c0.1-0.1,0.3-0.2,0.4-0.4C82,61.9,74.7,52,68.2,42.1C63.9,44.9,56,52,52.3,55.7c-1.8,1.8-3.5,3.7-5,5.6
			c-2,20.2,6.9,46.8,32.1,71.9c25.5,26.7,53.2,36.2,74,34.2c1.9-1.6,3.8-3.3,5.6-5.1c3.7-3.8,10.8-11.7,13.6-15.9
			C162.7,140,152.8,132.7,143,124.7z"/>
		<line class="st11" x1="126.6" y1="50.6" x2="194.8" y2="50.6"/>
		<line class="st11" x1="126.6" y1="36.9" x2="194.8" y2="36.9"/>
		<line class="st11" x1="171" y1="98.5" x2="177.8" y2="98.5"/>
		<line class="st11" x1="184.7" y1="98.5" x2="191.5" y2="98.5"/>
		<line class="st11" x1="198.4" y1="98.5" x2="205.2" y2="98.5"/>
	</g>
</g>
</svg>
