<svg width="40" height="40" viewBox="0 0 40 40" fill="none" xmlns="http://www.w3.org/2000/svg">
<rect width="40" height="40" rx="9" fill="#EDC126"/>
<path fill-rule="evenodd" clip-rule="evenodd" d="M26.149 17.2732C26.1409 17.2401 26.1292 17.2076 26.1151 17.1759C26.0542 17.0448 25.9378 16.9469 25.8014 16.9104L20.6332 14.3647C20.4995 14.299 20.3343 14.299 20.2008 14.3647L14.9646 16.9418C14.7998 17.0214 14.6921 17.1877 14.684 17.3758L14.6836 23.8663C14.6836 24.0591 14.7942 24.2368 14.9638 24.3189L20.1813 26.8868L20.1894 26.8946L20.2168 26.9039L20.2534 26.9286H20.2819L20.3083 26.9419H20.3326L20.3484 26.9469H20.3808C20.3943 26.948 20.4072 26.9491 20.4189 26.9491C20.4307 26.9491 20.4484 26.9491 20.4692 26.9463C20.4854 26.9459 20.5026 26.9431 20.5199 26.9387L20.5392 26.9336C20.5428 26.9326 20.5457 26.9315 20.5494 26.9305H20.5569L20.5889 26.9174C20.597 26.9149 20.6097 26.9098 20.6249 26.9026C20.633 26.8994 20.6411 26.8954 20.6492 26.8902L25.8895 24.3103C26.059 24.2267 26.1687 24.0489 26.1687 23.8587V17.2832L26.149 17.2732ZM19.921 20.2947V25.6413L15.6728 23.5501V18.203L19.921 20.2947ZM22.7038 19.4103L20.9099 20.2944V25.641L25.1738 23.5394V18.1922L23.693 18.9215V21.677C23.693 21.9544 23.4712 22.179 23.1987 22.179C22.9255 22.179 22.7038 21.9542 22.7038 21.677V19.4103ZM19.1762 15.9854L20.4159 15.374L24.5251 17.3971L23.2853 18.0084L19.1762 15.9854ZM20.4152 19.4205L22.1509 18.5664L18.0422 16.5432L16.306 17.3976L20.4152 19.4205Z" fill="white"/>
<path d="M26.1151 17.1759L26.2977 17.0944L26.2965 17.0917L26.1151 17.1759ZM26.149 17.2732L25.9547 17.3208L25.9766 17.4105L26.0592 17.4519L26.149 17.2732ZM25.8014 16.9104L25.713 17.0898L25.7307 17.0985L25.7497 17.1036L25.8014 16.9104ZM20.6332 14.3647L20.7216 14.1853L20.7214 14.1852L20.6332 14.3647ZM20.2008 14.3647L20.1125 14.1852L20.1125 14.1852L20.2008 14.3647ZM14.9646 16.9418L15.0516 17.1219L15.0529 17.1213L14.9646 16.9418ZM14.684 17.3758L14.484 17.3672L14.484 17.3758L14.684 17.3758ZM14.6836 23.8663L14.4836 23.8663V23.8663H14.6836ZM14.9638 24.3189L15.0521 24.1395L15.0509 24.1389L14.9638 24.3189ZM20.1813 26.8868L20.32 26.7427L20.2976 26.7211L20.2696 26.7073L20.1813 26.8868ZM20.1894 26.8946L20.0506 27.0386L20.0829 27.0697L20.1253 27.084L20.1894 26.8946ZM20.2168 26.9039L20.3287 26.7381L20.3064 26.7231L20.281 26.7144L20.2168 26.9039ZM20.2534 26.9286L20.1415 27.0943L20.1922 27.1286H20.2534V26.9286ZM20.2819 26.9286L20.3719 26.75L20.3294 26.7286H20.2819V26.9286ZM20.3083 26.9419L20.2183 27.1205L20.2608 27.1419H20.3083V26.9419ZM20.3326 26.9419L20.3937 26.7514L20.3639 26.7419H20.3326V26.9419ZM20.3484 26.9469L20.2873 27.1374L20.3171 27.1469H20.3484V26.9469ZM20.3808 26.9469L20.3964 26.7475L20.3886 26.7469H20.3808V26.9469ZM20.4692 26.9463L20.464 26.7464L20.4534 26.7466L20.443 26.748L20.4692 26.9463ZM20.5199 26.9387L20.5697 27.1324L20.5706 27.1322L20.5199 26.9387ZM20.5392 26.9336L20.59 27.1272L20.5965 27.1253L20.5392 26.9336ZM20.5494 26.9305V26.7305H20.5217L20.4951 26.738L20.5494 26.9305ZM20.5569 26.9305V27.1305H20.5962L20.6326 27.1156L20.5569 26.9305ZM20.5889 26.9174L20.5293 26.7265L20.5211 26.729L20.5132 26.7323L20.5889 26.9174ZM20.6249 26.9026L20.5519 26.7159L20.5394 26.7218L20.6249 26.9026ZM20.6492 26.8902L20.5609 26.7107L20.5501 26.716L20.5401 26.7225L20.6492 26.8902ZM25.8895 24.3103L25.9779 24.4897L25.978 24.4896L25.8895 24.3103ZM26.1687 17.2832H26.3687V17.1598L26.2585 17.1044L26.1687 17.2832ZM19.921 25.6413L19.8327 25.8208L20.121 25.9627V25.6413H19.921ZM19.921 20.2947H20.121V20.1702L20.0094 20.1153L19.921 20.2947ZM15.6728 23.5501H15.4728V23.6745L15.5845 23.7295L15.6728 23.5501ZM15.6728 18.203L15.7612 18.0236L15.4728 17.8816V18.203H15.6728ZM20.9099 20.2944L20.8214 20.115L20.7099 20.17V20.2944H20.9099ZM22.7038 19.4103H22.9038V19.0888L22.6153 19.2309L22.7038 19.4103ZM20.9099 25.641H20.7099V25.9625L20.9983 25.8204L20.9099 25.641ZM25.1738 23.5394L25.2623 23.7188L25.3738 23.6638V23.5394H25.1738ZM25.1738 18.1922H25.3738V17.8707L25.0855 18.0127L25.1738 18.1922ZM23.693 18.9215L23.6046 18.742L23.493 18.797V18.9215H23.693ZM20.4159 15.374L20.5043 15.1946L20.4159 15.1511L20.3275 15.1947L20.4159 15.374ZM19.1762 15.9854L19.0877 15.806L18.7237 15.9855L19.0879 16.1648L19.1762 15.9854ZM24.5251 17.3971L24.6135 17.5765L24.9776 17.397L24.6134 17.2177L24.5251 17.3971ZM23.2853 18.0084L23.197 18.1878L23.2854 18.2314L23.3738 18.1878L23.2853 18.0084ZM22.1509 18.5664L22.2392 18.7459L22.6037 18.5665L22.2392 18.387L22.1509 18.5664ZM20.4152 19.4205L20.3268 19.5999L20.4152 19.6434L20.5035 19.5999L20.4152 19.4205ZM18.0422 16.5432L18.1305 16.3637L18.0422 16.3202L17.9538 16.3637L18.0422 16.5432ZM16.306 17.3976L16.2177 17.2182L15.8532 17.3976L16.2177 17.5771L16.306 17.3976ZM25.9324 17.2575C25.9425 17.28 25.9499 17.3011 25.9547 17.3208L26.3432 17.2257C26.3318 17.1791 26.3159 17.1351 26.2977 17.0944L25.9324 17.2575ZM25.7497 17.1036C25.828 17.1245 25.8974 17.182 25.9337 17.2602L26.2965 17.0917C26.211 16.9076 26.0475 16.7692 25.8531 16.7172L25.7497 17.1036ZM20.5448 14.5441L25.713 17.0898L25.8898 16.731L20.7216 14.1853L20.5448 14.5441ZM20.2891 14.5441C20.3668 14.5059 20.4669 14.5058 20.545 14.5442L20.7214 14.1852C20.5321 14.0922 20.3017 14.0922 20.1125 14.1852L20.2891 14.5441ZM15.0529 17.1213L20.2891 14.5441L20.1125 14.1852L14.8763 16.7624L15.0529 17.1213ZM14.8838 17.3844C14.8889 17.2675 14.9553 17.1684 15.0516 17.1219L14.8777 16.7617C14.6443 16.8744 14.4954 17.108 14.4842 17.3672L14.8838 17.3844ZM14.8836 23.8663L14.884 17.3758L14.484 17.3758L14.4836 23.8663L14.8836 23.8663ZM15.0509 24.1389C14.9517 24.0909 14.8836 23.984 14.8836 23.8663H14.4836C14.4836 24.1342 14.6366 24.3827 14.8767 24.4989L15.0509 24.1389ZM20.2696 26.7073L15.0521 24.1395L14.8755 24.4983L20.093 27.0662L20.2696 26.7073ZM20.3281 26.7506L20.32 26.7427L20.0425 27.0308L20.0506 27.0386L20.3281 26.7506ZM20.281 26.7144L20.2535 26.7051L20.1253 27.084L20.1527 27.0933L20.281 26.7144ZM20.3653 26.7628L20.3287 26.7381L20.1049 27.0696L20.1415 27.0943L20.3653 26.7628ZM20.2819 26.7286H20.2534V27.1286H20.2819V26.7286ZM20.3983 26.7633L20.3719 26.75L20.1919 27.1072L20.2183 27.1205L20.3983 26.7633ZM20.3326 26.7419H20.3083V27.1419H20.3326V26.7419ZM20.4095 26.7565L20.3937 26.7514L20.2715 27.1323L20.2873 27.1374L20.4095 26.7565ZM20.3808 26.7469H20.3484V27.1469H20.3808V26.7469ZM20.4189 26.7491C20.4189 26.7491 20.4185 26.7491 20.4175 26.749C20.4164 26.749 20.415 26.7489 20.413 26.7488C20.4086 26.7485 20.4039 26.7481 20.3964 26.7475L20.3653 27.1463C20.376 27.1472 20.3977 27.1491 20.4189 27.1491V26.7491ZM20.443 26.748C20.4363 26.7489 20.43 26.7491 20.4189 26.7491V27.1491C20.4314 27.1491 20.4605 27.1492 20.4953 27.1446L20.443 26.748ZM20.4701 26.745C20.4641 26.7465 20.462 26.7464 20.464 26.7464L20.4744 27.1462C20.5087 27.1453 20.5412 27.1397 20.5697 27.1324L20.4701 26.745ZM20.4885 26.7402L20.4692 26.7452L20.5706 27.1322L20.5899 27.1271L20.4885 26.7402ZM20.4951 26.738C20.4896 26.7396 20.485 26.741 20.4829 26.7417C20.4801 26.7426 20.4811 26.7423 20.482 26.742L20.5965 27.1253C20.6009 27.124 20.6051 27.1226 20.6056 27.1224C20.6067 27.1221 20.6055 27.1224 20.6037 27.123L20.4951 26.738ZM20.5569 26.7305H20.5494V27.1305H20.5569V26.7305ZM20.5132 26.7323L20.4812 26.7453L20.6326 27.1156L20.6646 27.1025L20.5132 26.7323ZM20.5394 26.7218C20.5347 26.724 20.5311 26.7256 20.5287 26.7266C20.5259 26.7277 20.5263 26.7274 20.5293 26.7265L20.6486 27.1083C20.6689 27.1019 20.6908 27.0926 20.7104 27.0834L20.5394 26.7218ZM20.5401 26.7225C20.5445 26.7197 20.5487 26.7176 20.5521 26.7163L20.6976 27.0889C20.7172 27.0813 20.7377 27.0712 20.7583 27.0578L20.5401 26.7225ZM25.8012 24.1308L20.5609 26.7107L20.7375 27.0696L25.9779 24.4897L25.8012 24.1308ZM25.9687 23.8587C25.9687 23.9736 25.9014 24.0814 25.801 24.1309L25.978 24.4896C26.2165 24.372 26.3687 24.1242 26.3687 23.8587H25.9687ZM25.9687 17.2832V23.8587H26.3687V17.2832H25.9687ZM26.0592 17.4519L26.0789 17.4619L26.2585 17.1044L26.2387 17.0945L26.0592 17.4519ZM20.121 25.6413V20.2947H19.721V25.6413H20.121ZM15.5845 23.7295L19.8327 25.8208L20.0093 25.4619L15.7611 23.3706L15.5845 23.7295ZM15.4728 18.203V23.5501H15.8728V18.203H15.4728ZM20.0094 20.1153L15.7612 18.0236L15.5845 18.3825L19.8327 20.4741L20.0094 20.1153ZM20.9983 20.4738L22.7922 19.5897L22.6153 19.2309L20.8214 20.115L20.9983 20.4738ZM21.1099 25.641V20.2944H20.7099V25.641H21.1099ZM25.0854 23.36L20.8214 25.4616L20.9983 25.8204L25.2623 23.7188L25.0854 23.36ZM24.9738 18.1922V23.5394H25.3738V18.1922H24.9738ZM23.7814 19.1009L25.2622 18.3716L25.0855 18.0127L23.6046 18.742L23.7814 19.1009ZM23.893 21.677V18.9215H23.493V21.677H23.893ZM23.1987 22.379C23.5844 22.379 23.893 22.0621 23.893 21.677H23.493C23.493 21.8467 23.358 21.979 23.1987 21.979V22.379ZM22.5038 21.677C22.5038 22.062 22.8125 22.379 23.1987 22.379V21.979C23.0386 21.979 22.9038 21.8463 22.9038 21.677H22.5038ZM22.5038 19.4103V21.677H22.9038V19.4103H22.5038ZM20.3275 15.1947L19.0877 15.806L19.2647 16.1647L20.5044 15.5534L20.3275 15.1947ZM24.6134 17.2177L20.5043 15.1946L20.3276 15.5535L24.4367 17.5765L24.6134 17.2177ZM23.3738 18.1878L24.6135 17.5765L24.4366 17.2177L23.1969 17.829L23.3738 18.1878ZM19.0879 16.1648L23.197 18.1878L23.3737 17.829L19.2645 15.8059L19.0879 16.1648ZM22.0626 18.387L20.3269 19.241L20.5035 19.5999L22.2392 18.7459L22.0626 18.387ZM17.9538 16.7226L22.0625 18.7458L22.2392 18.387L18.1305 16.3637L17.9538 16.7226ZM16.3944 17.5771L18.1305 16.7226L17.9538 16.3637L16.2177 17.2182L16.3944 17.5771ZM20.5035 19.241L16.3944 17.2182L16.2177 17.5771L20.3268 19.5999L20.5035 19.241Z" fill="white"/>
<path d="M17.8731 8.13159C17.6071 8.34506 17.7211 8.60808 18.219 8.93972C18.7321 9.2828 18.7397 9.2523 18.1316 9.35904C15.5166 9.81647 12.8332 11.5395 11.1114 13.8648C10.6211 14.5319 10.5299 14.8559 10.8035 15.0007C11.0886 15.157 11.2482 15.0922 11.5029 14.7186C13.0498 12.4315 15.1745 10.9486 17.9187 10.232C18.869 9.9842 18.8918 9.99563 18.4927 10.5255C18.1468 10.9829 18.1088 11.1812 18.3254 11.3794C18.6067 11.631 18.7891 11.509 19.4201 10.6208C20.3095 9.37047 20.3095 9.43528 19.4163 8.8063C18.105 7.88381 18.1544 7.90287 17.8731 8.13159Z" fill="white" stroke="white" stroke-width="0.4"/>
<path d="M23.8479 9.96894C23.5363 10.312 23.9962 10.8038 24.3877 10.5445C24.5853 10.4149 24.6309 10.068 24.4751 9.91176C24.3345 9.77072 23.9962 9.80121 23.8479 9.96894Z" fill="white" stroke="white" stroke-width="0.4"/>
<path d="M25.6576 10.8569C25.3991 11.2533 25.897 11.6917 26.2467 11.3791C26.4291 11.2114 26.4329 10.9483 26.2505 10.7844C26.0491 10.6015 25.8058 10.6281 25.6576 10.8569Z" fill="white" stroke="white" stroke-width="0.4"/>
<path d="M27.3181 11.9699C27.0026 12.2863 27.4283 12.8504 27.8008 12.6065C28.0631 12.4349 28.1049 12.2939 27.9566 12.069C27.8198 11.8631 27.4777 11.8098 27.3181 11.9699Z" fill="white" stroke="white" stroke-width="0.4"/>
<path d="M28.7133 13.4454C28.3903 13.7733 28.7932 14.3069 29.1922 14.082C29.4355 13.9448 29.4887 13.6703 29.3139 13.4721C29.1504 13.2968 28.8768 13.2853 28.7133 13.4454Z" fill="white" stroke="white" stroke-width="0.4"/>
<path d="M29.9072 15.0545C29.645 15.1612 29.6488 15.3785 29.93 15.977C31.0361 18.3404 31.2565 21.0621 30.5382 23.5818C30.3481 24.2413 29.4359 26.2082 29.1395 26.5856L28.995 26.7686L28.9418 26.1168C28.8696 25.2514 28.6149 24.9579 28.2159 25.2819L28.041 25.423L28.1702 26.4865C28.3755 28.2095 28.2463 28.0952 29.8046 27.9008C31.0437 27.7521 31.1995 27.6835 31.1653 27.3328C31.1311 26.9897 30.9791 26.9325 30.3329 27.024C29.6488 27.1231 29.6716 27.1422 29.9871 26.6962C32.0319 23.8182 32.3246 18.9503 30.6484 15.6148C30.3443 15.0087 30.2303 14.9249 29.9072 15.0545Z" fill="white" stroke="white" stroke-width="0.4"/>
<path d="M10.1801 15.4697C10.0129 15.565 10.0053 15.9424 10.1649 16.1063C10.412 16.3502 10.8263 16.1711 10.8263 15.8204C10.8263 15.443 10.5146 15.2715 10.1801 15.4697Z" fill="white" stroke="white" stroke-width="0.4"/>
<path d="M9.39332 17.4859C9.13486 17.8785 9.62897 18.3245 9.97485 18.012C10.1421 17.8633 10.1725 17.524 10.0319 17.383C9.86842 17.2191 9.53015 17.2763 9.39332 17.4859Z" fill="white" stroke="white" stroke-width="0.4"/>
<path d="M9.10084 19.423C8.81958 19.7318 9.17686 20.2235 9.55694 20.0482C9.7964 19.9414 9.86101 19.6898 9.70898 19.4611C9.56075 19.2324 9.28708 19.2172 9.10084 19.423Z" fill="white" stroke="white" stroke-width="0.4"/>
<path d="M9.22589 21.3095C9.03965 21.3819 8.96743 21.7174 9.09666 21.9156C9.2449 22.1443 9.62498 22.1634 9.73901 21.9461C9.95186 21.5497 9.62498 21.1456 9.22589 21.3095Z" fill="white" stroke="white" stroke-width="0.4"/>
<path d="M10.1729 24.9005C9.90682 25.1978 9.4013 27.2639 9.55334 27.4354C9.8308 27.7404 10.2071 27.607 10.3059 27.1648C10.3363 27.039 10.3933 26.8065 10.4351 26.6425L10.5112 26.3528L10.9559 27.0237C12.518 29.3948 15.1634 31.1711 18.0102 31.7582L18.6526 31.8916L18.797 31.7124C19.1011 31.3351 18.9224 31.1216 18.1813 30.9691C15.4485 30.4049 13.0843 28.7734 11.4272 26.3071C11.0661 25.7734 11.0661 25.7734 11.7312 25.9831C12.385 26.1889 12.6016 26.1813 12.7537 25.945C12.9285 25.6743 12.7499 25.4075 12.309 25.2969C12.1303 25.2512 11.6248 25.1101 11.1839 24.9882C10.2375 24.7213 10.3287 24.7289 10.1729 24.9005Z" fill="white" stroke="white" stroke-width="0.4"/>
<path d="M25.4367 29.9819C25.2961 30.1953 25.3759 30.4202 25.6382 30.5613C25.9841 30.7481 26.3527 30.1687 26.0715 29.8866C25.9118 29.7265 25.5698 29.776 25.4367 29.9819Z" fill="white" stroke="white" stroke-width="0.4"/>
<path d="M23.7493 30.6523C23.354 30.8429 23.6087 31.5672 24.0154 31.4185C24.384 31.2889 24.4677 30.8848 24.1712 30.6752C23.9774 30.538 23.9774 30.538 23.7493 30.6523Z" fill="white" stroke="white" stroke-width="0.4"/>
<path d="M21.7008 31.1862C21.3549 31.6322 21.8566 32.1391 22.2519 31.7427C22.5217 31.4721 22.3659 31.0909 21.982 31.0909C21.868 31.0909 21.7388 31.1328 21.7008 31.1862Z" fill="white" stroke="white" stroke-width="0.4"/>
<path d="M19.7011 31.3199C19.5111 31.5105 19.5073 31.7164 19.6897 31.8803C19.8721 32.0442 20.104 32.0404 20.2598 31.8651C20.6209 31.4686 20.0812 30.9387 19.7011 31.3199Z" fill="white" stroke="white" stroke-width="0.4"/>
</svg>
