<svg width="26" height="26" viewBox="0 0 26 26" fill="none" xmlns="http://www.w3.org/2000/svg">
<path d="M6.5998 21.7998V20.9996C6.5998 18.3486 8.74884 16.1998 11.3998 16.1998H14.5998C17.2508 16.1998 19.3998 18.3486 19.3998 20.9996V21.7998M12.9998 6.5998C11.2325 6.5998 9.7998 8.03249 9.7998 9.7998C9.7998 11.5671 11.2325 12.9998 12.9998 12.9998C14.7671 12.9998 16.1998 11.5671 16.1998 9.7998C16.1998 8.03249 14.7671 6.5998 12.9998 6.5998ZM12.9998 24.1998C6.81422 24.1998 1.7998 19.1854 1.7998 12.9998C1.7998 6.81422 6.81422 1.7998 12.9998 1.7998C19.1854 1.7998 24.1998 6.81422 24.1998 12.9998C24.1998 19.1854 19.1854 24.1998 12.9998 24.1998Z" stroke="#ffbb39" stroke-width="1.8" stroke-linecap="square"/>
</svg>
