<svg width="17" height="15" viewBox="0 0 17 15" fill="none" xmlns="http://www.w3.org/2000/svg">
<path fill-rule="evenodd" clip-rule="evenodd" d="M12.7185 3.64449V3.64449C12.4249 3.64449 12.1589 3.47526 12.0337 3.2108C11.8078 2.73223 11.5205 2.12065 11.3505 1.7877C11.0994 1.29261 10.6925 1.00453 10.1289 1.00059C10.1195 0.999803 6.44208 0.999803 6.43264 1.00059C5.86906 1.00453 5.46292 1.29261 5.21104 1.7877C5.04181 2.12065 4.75452 2.73223 4.52862 3.2108C4.40346 3.47526 4.13663 3.64449 3.84383 3.64449V3.64449C2.27276 3.64449 1 4.91725 1 6.48754V11.1598C1 12.7293 2.27276 14.0029 3.84383 14.0029H12.7185C14.2888 14.0029 15.5615 12.7293 15.5615 11.1598V6.48754C15.5615 4.91725 14.2888 3.64449 12.7185 3.64449Z" stroke="#40AA54" stroke-linecap="round" stroke-linejoin="round"/>
<path fill-rule="evenodd" clip-rule="evenodd" d="M5.77938 8.54267C5.77859 9.92248 6.90494 11.0512 8.28239 11.0504C9.65747 11.0488 10.7807 9.92484 10.783 8.54818C10.7854 7.16602 9.66298 6.03966 8.28396 6.03809C6.89707 6.03651 5.76836 7.18176 5.77938 8.54267Z" stroke="#40AA54" stroke-linecap="round" stroke-linejoin="round"/>
<path d="M12.1391 6.70317C12.063 6.69536 11.9879 6.67552 11.9038 6.64166C11.8102 6.60009 11.7292 6.54721 11.6509 6.46764C11.5102 6.31796 11.4287 6.12223 11.4287 5.92031C11.4287 5.81305 11.4506 5.70674 11.4935 5.61044C11.5364 5.51287 11.5872 5.43057 11.6792 5.34105C11.7491 5.28015 11.8207 5.23115 11.9186 5.18801C12.209 5.07296 12.5544 5.1417 12.7702 5.35746C12.8349 5.4212 12.8894 5.49811 12.9196 5.56298L12.9375 5.60897C12.981 5.70674 13.0029 5.81305 13.0029 5.92031C13.0029 6.12632 12.9225 6.31685 12.7732 6.47544C12.6442 6.60534 12.4747 6.68523 12.2939 6.70317L12.2158 6.70703L12.1391 6.70317Z" fill="#40AA54"/>
</svg>
