<svg width="40" height="40" viewBox="0 0 40 40" fill="none" xmlns="http://www.w3.org/2000/svg">
<rect width="40" height="40" rx="9" fill="#2652ED"/>
<path d="M27.4596 26.5884C27.247 26.5885 27.0393 26.5255 26.8625 26.4075C26.6858 26.2895 26.548 26.1217 26.4666 25.9254C26.3853 25.729 26.3639 25.513 26.4054 25.3045C26.4468 25.0961 26.5491 24.9046 26.6994 24.7543C26.8496 24.604 27.0411 24.5016 27.2495 24.4601C27.4579 24.4186 27.674 24.4399 27.8704 24.5212C28.0667 24.6025 28.2346 24.7402 28.3526 24.917C28.4707 25.0937 28.5337 25.3014 28.5337 25.5139C28.5335 25.7988 28.4202 26.0719 28.2189 26.2733C28.0175 26.4748 27.7444 26.5881 27.4596 26.5884ZM27.4596 25.0884C27.3753 25.0884 27.293 25.1133 27.2229 25.1601C27.1528 25.2068 27.0982 25.2733 27.0659 25.3512C27.0336 25.429 27.0252 25.5146 27.0416 25.5973C27.058 25.6799 27.0986 25.7558 27.1581 25.8154C27.2177 25.875 27.2936 25.9155 27.3763 25.9319C27.4589 25.9484 27.5445 25.9399 27.6224 25.9076C27.7002 25.8754 27.7667 25.8207 27.8135 25.7506C27.8602 25.6806 27.8852 25.5982 27.8851 25.5139C27.885 25.4011 27.8401 25.2929 27.7604 25.2132C27.6806 25.1334 27.5724 25.0885 27.4596 25.0884Z" fill="white"/>
<path d="M31.0268 25.8375H29.4733C29.3873 25.8375 29.3048 25.8033 29.244 25.7425C29.1832 25.6816 29.149 25.5991 29.149 25.5131C29.149 25.4271 29.1832 25.3446 29.244 25.2838C29.3048 25.223 29.3873 25.1888 29.4733 25.1888H30.7025V19.2566L28.045 15.7834H24.216V25.1888H25.4452C25.5312 25.1888 25.6137 25.223 25.6745 25.2838C25.7354 25.3446 25.7695 25.4271 25.7695 25.5131C25.7695 25.5991 25.7354 25.6816 25.6745 25.7425C25.6137 25.8033 25.5312 25.8375 25.4452 25.8375H23.8917C23.8057 25.8375 23.7232 25.8033 23.6624 25.7425C23.6016 25.6816 23.5674 25.5991 23.5674 25.5131V15.4591C23.5674 15.3731 23.6016 15.2906 23.6624 15.2298C23.7232 15.1689 23.8057 15.1348 23.8917 15.1348H28.2052C28.255 15.1348 28.3042 15.1462 28.3488 15.1683C28.3935 15.1903 28.4324 15.2224 28.4627 15.2619L31.2843 18.9495C31.3277 19.0061 31.3512 19.0754 31.3512 19.1467V25.5131C31.3512 25.5991 31.317 25.6816 31.2562 25.7425C31.1953 25.8033 31.1128 25.8375 31.0268 25.8375Z" fill="white"/>
<path d="M23.7083 26H17.5392C17.4618 26 17.3876 25.9658 17.3329 25.9048C17.2782 25.8439 17.2475 25.7613 17.2475 25.6751C17.2475 25.5889 17.2782 25.5063 17.3329 25.4453C17.3876 25.3844 17.4618 25.3502 17.5392 25.3502H23.4167V13.6498H10.5833V25.3502H12.9167C12.994 25.3502 13.0682 25.3844 13.1229 25.4453C13.1776 25.5063 13.2083 25.5889 13.2083 25.6751C13.2083 25.7613 13.1776 25.8439 13.1229 25.9048C13.0682 25.9658 12.994 26 12.9167 26H10.2917C10.2143 26 10.1401 25.9658 10.0854 25.9048C10.0307 25.8439 10 25.7613 10 25.6751V13.3249C10 13.2387 10.0307 13.1561 10.0854 13.0952C10.1401 13.0342 10.2143 13 10.2917 13H23.7083C23.7857 13 23.8599 13.0342 23.9146 13.0952C23.9693 13.1561 24 13.2387 24 13.3249V25.6751C24 25.7613 23.9693 25.8439 23.9146 25.9048C23.8599 25.9658 23.7857 26 23.7083 26Z" fill="white"/>
<path d="M23.7083 22H10.2917C10.2143 22 10.1401 21.9473 10.0854 21.8536C10.0307 21.7598 10 21.6326 10 21.5C10 21.3674 10.0307 21.2402 10.0854 21.1464C10.1401 21.0527 10.2143 21 10.2917 21H23.7083C23.7857 21 23.8599 21.0527 23.9146 21.1464C23.9693 21.2402 24 21.3674 24 21.5C24 21.6326 23.9693 21.7598 23.9146 21.8536C23.8599 21.9473 23.7857 22 23.7083 22Z" fill="white"/>
<path d="M15.3374 27.8512C14.8751 27.8512 14.4231 27.714 14.0387 27.4571C13.6543 27.2002 13.3547 26.8351 13.1779 26.4079C13.001 25.9807 12.9547 25.5107 13.045 25.0572C13.1352 24.6038 13.3579 24.1873 13.6848 23.8604C14.0118 23.5335 14.4283 23.3109 14.8818 23.2207C15.3352 23.1305 15.8053 23.1768 16.2324 23.3538C16.6596 23.5307 17.0246 23.8303 17.2815 24.2148C17.5384 24.5992 17.6755 25.0512 17.6755 25.5135C17.6748 26.1334 17.4282 26.7276 16.9899 27.1659C16.5515 27.6042 15.9573 27.8506 15.3374 27.8512ZM15.3374 23.8241C15.0034 23.8242 14.6768 23.9233 14.3991 24.1089C14.1214 24.2945 13.905 24.5583 13.7772 24.867C13.6494 25.1756 13.6159 25.5152 13.6811 25.8428C13.7463 26.1704 13.9072 26.4713 14.1434 26.7075C14.3796 26.9437 14.6805 27.1046 15.0081 27.1698C15.3357 27.235 15.6753 27.2016 15.984 27.0738C16.2926 26.9459 16.5564 26.7295 16.742 26.4518C16.9276 26.1741 17.0267 25.8475 17.0268 25.5135C17.0263 25.0656 16.8481 24.6363 16.5314 24.3196C16.2147 24.0029 15.7853 23.8249 15.3374 23.8244V23.8241Z" fill="white"/>
<path d="M15.3399 26.5535C15.1342 26.5535 14.933 26.4924 14.762 26.378C14.5909 26.2637 14.4576 26.1011 14.3789 25.911C14.3002 25.7209 14.2797 25.5117 14.3198 25.3099C14.36 25.1081 14.4591 24.9228 14.6047 24.7773C14.7502 24.6318 14.9356 24.5327 15.1374 24.4926C15.3392 24.4525 15.5484 24.4731 15.7385 24.5519C15.9286 24.6306 16.091 24.764 16.2054 24.9351C16.3197 25.1062 16.3807 25.3073 16.3807 25.5131C16.3803 25.789 16.2706 26.0535 16.0754 26.2485C15.8803 26.4436 15.6158 26.5533 15.3399 26.5535ZM15.3399 25.121C15.2625 25.121 15.1868 25.1441 15.1224 25.1871C15.058 25.2302 15.0078 25.2914 14.9782 25.363C14.9486 25.4346 14.9409 25.5133 14.956 25.5893C14.9711 25.6652 15.0084 25.735 15.0632 25.7898C15.118 25.8446 15.1878 25.8819 15.2637 25.897C15.3397 25.9121 15.4184 25.9044 15.49 25.8748C15.5616 25.8452 15.6228 25.795 15.6659 25.7306C15.7089 25.6663 15.732 25.5906 15.732 25.5131C15.7319 25.4092 15.6905 25.3096 15.617 25.2361C15.5435 25.1627 15.4438 25.1214 15.3399 25.1213V25.121Z" fill="white"/>
<path d="M27.4598 27.8512C26.9974 27.8512 26.5455 27.7141 26.161 27.4573C25.7766 27.2004 25.477 26.8353 25.3 26.4081C25.1231 25.981 25.0768 25.5109 25.167 25.0574C25.2572 24.604 25.4798 24.1874 25.8068 23.8605C26.1337 23.5335 26.5503 23.3109 27.0037 23.2207C27.4572 23.1305 27.9272 23.1768 28.3544 23.3537C28.7816 23.5307 29.1467 23.8303 29.4035 24.2147C29.6604 24.5992 29.7975 25.0511 29.7975 25.5135C29.7968 26.1333 29.5503 26.7275 29.1121 27.1658C28.6738 27.604 28.0796 27.8505 27.4598 27.8512ZM27.4598 23.8241C27.1257 23.8241 26.7992 23.9232 26.5214 24.1087C26.2437 24.2943 26.0272 24.5581 25.8993 24.8667C25.7715 25.1753 25.738 25.5149 25.8032 25.8426C25.8683 26.1702 26.0291 26.4712 26.2653 26.7074C26.5015 26.9437 26.8024 27.1046 27.1301 27.1698C27.4577 27.235 27.7973 27.2016 28.106 27.0738C28.4146 26.946 28.6784 26.7295 28.8641 26.4518C29.0497 26.1741 29.1488 25.8476 29.1489 25.5135C29.1484 25.0657 28.9702 24.6364 28.6536 24.3197C28.3369 24.0031 27.9076 23.8246 27.4598 23.8241Z" fill="white"/>
<path d="M29.1355 21.2967H25.5128C25.4268 21.2967 25.3443 21.2626 25.2835 21.2017C25.2226 21.1409 25.1885 21.0584 25.1885 20.9724V17.3497C25.1885 17.2637 25.2226 17.1812 25.2835 17.1204C25.3443 17.0596 25.4268 17.0254 25.5128 17.0254H27.7539C27.8038 17.0254 27.853 17.037 27.8977 17.0591C27.9425 17.0813 27.9815 17.1135 28.0117 17.1532L29.3933 18.9645C29.4364 19.021 29.4598 19.09 29.4598 19.1611V20.9724C29.4598 21.0584 29.4257 21.1409 29.3648 21.2017C29.304 21.2626 29.2215 21.2967 29.1355 21.2967ZM25.8371 20.6481H28.8112V19.2707L27.5933 17.674H25.8371V20.6481Z" fill="white"/>
</svg>
