<svg width="30" height="30" viewBox="0 0 30 30" fill="none" xmlns="http://www.w3.org/2000/svg">
<g clip-path="url(#clip0_572_10753)">
<path d="M29.9218 11.5067C29.7254 10.8993 29.1866 10.4678 28.5492 10.4104L19.8903 9.62413L16.4664 1.61009C16.2139 1.02276 15.639 0.642578 15.0002 0.642578C14.3613 0.642578 13.7864 1.02276 13.5339 1.61146L10.11 9.62413L1.44977 10.4104C0.813463 10.4692 0.276035 10.8993 0.0785047 11.5067C-0.119025 12.1142 0.0633981 12.7805 0.544749 13.2005L7.08979 18.9405L5.15981 27.4421C5.01859 28.0672 5.26121 28.7134 5.77987 29.0883C6.05865 29.2897 6.38482 29.3923 6.71373 29.3923C6.99732 29.3923 7.27863 29.3158 7.53109 29.1647L15.0002 24.7007L22.4665 29.1647C23.0128 29.4934 23.7015 29.4634 24.2191 29.0883C24.738 28.7122 24.9803 28.0658 24.8391 27.4421L22.9091 18.9405L29.4542 13.2016C29.9355 12.7805 30.1193 12.1153 29.9218 11.5067Z" fill="#E1E1E1"/>
</g>
<defs>
<clipPath id="clip0_572_10753">
<rect width="30" height="30" fill="white"/>
</clipPath>
</defs>
</svg>
