<svg width="14" height="14" viewBox="0 0 14 14" fill="none" xmlns="http://www.w3.org/2000/svg">
<path d="M13.9635 5.36974C13.8719 5.08626 13.6204 4.88491 13.3229 4.8581L9.28216 4.4912L7.68432 0.751309C7.56651 0.477223 7.29819 0.299805 7.00007 0.299805C6.70195 0.299805 6.43364 0.477223 6.31582 0.751949L4.71798 4.4912L0.67656 4.8581C0.379616 4.88555 0.128816 5.08626 0.0366355 5.36974C-0.0555452 5.65323 0.0295858 5.96417 0.254216 6.16017L3.30857 8.83886L2.40791 12.8063C2.34201 13.098 2.45523 13.3995 2.69727 13.5745C2.82737 13.6685 2.97958 13.7163 3.13307 13.7163C3.26542 13.7163 3.39669 13.6806 3.51451 13.6101L7.00007 11.5269L10.4844 13.6101C10.7393 13.7635 11.0607 13.7495 11.3022 13.5745C11.5444 13.399 11.6575 13.0973 11.5916 12.8063L10.6909 8.83886L13.7453 6.1607C13.9699 5.96417 14.0557 5.65376 13.9635 5.36974Z" fill="#FFC107"/>
</svg>
